<svg width="93" height="281" viewBox="0 0 93 281" fill="none" xmlns="http://www.w3.org/2000/svg">
<g clip-path="url(#clip0)">
<path d="M46.486 280.417H10.6647C5.11973 280.417 0.626678 276.235 0.626678 271.074V133.386C0.626678 133.386 2.86481 114.638 20.2103 105.264V93.2865H46.486" stroke="black" stroke-width="4" stroke-miterlimit="10"/>
<path d="M46.514 280.417H82.3353C87.8803 280.417 92.3733 276.235 92.3733 271.074V133.386C92.3733 133.386 90.1352 114.638 72.7897 105.264V93.2865H46.514" stroke="black" stroke-width="4" stroke-miterlimit="10"/>
<path d="M46.514 56.551H16.8755C14.3296 56.551 12.2706 58.4674 12.2706 60.8369V90.8648C12.2706 90.8648 9.73587 93.6093 12.2706 95.9684H20.2103" stroke="black" stroke-width="4" stroke-miterlimit="10"/>
<path d="M46.3965 56.551H76.0293C78.5752 56.551 80.6343 58.4674 80.6343 60.8369V90.8648C80.6343 90.8648 83.169 93.6093 80.6343 95.9684H72.6945" stroke="black" stroke-width="4" stroke-miterlimit="10"/>
<path d="M46.514 0.58905C46.514 0.58905 27.8536 1.10983 27.8536 16.9674C27.8536 33.3979 27.8536 47.8755 27.8536 47.8755C27.8536 47.8755 27.4619 56.5464 23.5564 56.5464" stroke="black" stroke-width="4" stroke-miterlimit="10"/>
<path d="M46.514 0.588486C46.514 0.588486 64.9786 0.0677117 64.9786 16.9669C64.9786 33.3973 64.9786 47.8749 64.9786 47.8749C64.9786 47.8749 65.3703 56.5458 69.2758 56.5458" stroke="black" stroke-width="4" stroke-miterlimit="10"/>
</g>
<defs>
<clipPath id="clip0">
<rect width="93" height="281" fill="white"/>
</clipPath>
</defs>
</svg>
