<svg width="183" height="291" viewBox="0 0 183 291" fill="none" xmlns="http://www.w3.org/2000/svg">
<g clip-path="url(#clip0)">
<path d="M32.3714 281.203C19.8461 277.709 10.6659 274.054 6.08259 272.078C4.00253 271.182 2.54379 269.256 2.24213 266.998C0.108049 250.993 -5.03357 185.232 46.7022 144.217C48.2105 143.021 50.178 142.577 52.0509 142.989C58.1966 144.355 73.5179 147.294 91.4955 147.294H91.5135C109.491 147.294 124.812 144.355 130.958 142.989C132.831 142.573 134.799 143.021 136.307 144.217C188.137 185.308 182.878 251.234 180.753 267.083C180.461 269.269 179.074 271.155 177.088 272.087C168.066 276.311 159.052 279.649 150.142 282.238" stroke="black" stroke-width="4.5" stroke-miterlimit="10"/>
<path d="M31.9572 281.104L33.7266 284.213C35.7572 287.788 39.5661 289.997 43.6947 289.997H138.076C141.115 289.997 144.028 288.796 146.176 286.659L150.84 282.018L31.9572 281.104Z" stroke="black" stroke-width="4.5" stroke-miterlimit="10"/>
<path d="M91.491 145.749H130.215C132.453 145.749 134.263 143.943 134.263 141.721V86.6133C134.263 84.3869 132.448 82.5861 130.215 82.5861H91.491H52.7668C50.5292 82.5861 48.7193 84.3914 48.7193 86.6133V141.717C48.7193 143.943 50.5337 145.744 52.7668 145.744H91.491V145.749Z" stroke="black" stroke-width="4.5" stroke-miterlimit="10"/>
<path d="M91.491 82.5861H64.2927L68.4978 76.3504C69.6999 74.5631 70.4023 72.489 70.5193 70.3433C71.0596 60.6539 72.5859 31.9351 72.5859 17.1837C72.5859 -0.734716 91.4955 1.05713 91.4955 1.05713C91.4955 1.05713 110.405 -0.734716 110.405 17.1837C110.405 31.9351 111.931 60.6494 112.472 70.3433C112.593 72.489 113.291 74.5631 114.493 76.3504L118.698 82.5861H91.491Z" stroke="black" stroke-width="4.5" stroke-miterlimit="10"/>
</g>
<defs>
<clipPath id="clip0">
<rect width="183" height="291" fill="white"/>
</clipPath>
</defs>
</svg>
