<svg width="80" height="80" viewBox="0 0 80 80" fill="none" xmlns="http://www.w3.org/2000/svg">
<path d="M39.9999 62.3199C27.6927 62.3199 17.6799 52.3071 17.6799 39.9999C17.6799 27.6927 27.6927 17.6799 39.9999 17.6799C52.3071 17.6799 62.3199 27.6927 62.3199 39.9999C62.3199 52.3071 52.3071 62.3199 39.9999 62.3199ZM39.9999 18.3199C28.0463 18.3199 18.3199 28.0463 18.3199 39.9999C18.3199 51.9535 28.0463 61.6799 39.9999 61.6799C51.9535 61.6799 61.6799 51.9535 61.6799 39.9999C61.6799 28.0463 51.9535 18.3199 39.9999 18.3199Z" fill="#231F20"/>
<path d="M39.9999 40.3199H17.9999C17.9151 40.3199 17.8337 40.2862 17.7737 40.2262C17.7136 40.1662 17.6799 40.0848 17.6799 39.9999C17.6799 39.9151 17.7136 39.8337 17.7737 39.7737C17.8337 39.7136 17.9151 39.6799 17.9999 39.6799H39.6799V17.9999C39.6799 17.9151 39.7136 17.8337 39.7737 17.7737C39.8337 17.7136 39.9151 17.6799 39.9999 17.6799C40.0848 17.6799 40.1662 17.7136 40.2262 17.7737C40.2862 17.8337 40.3199 17.9151 40.3199 17.9999V39.9999C40.3199 40.0848 40.2862 40.1662 40.2262 40.2262C40.1662 40.2862 40.0848 40.3199 39.9999 40.3199Z" fill="#231F20"/>
<path d="M36.6256 25.3921C36.5738 25.392 36.5227 25.3794 36.4768 25.3553L35.0816 24.6209L33.6864 25.3553C33.6336 25.383 33.574 25.3954 33.5145 25.391C33.455 25.3867 33.3978 25.3657 33.3496 25.3306C33.3013 25.2955 33.2638 25.2476 33.2413 25.1923C33.2189 25.137 33.2123 25.0765 33.2224 25.0177L33.4896 23.4641L32.36 22.3649C32.3169 22.3232 32.2863 22.2703 32.2717 22.2121C32.2572 22.1539 32.2593 22.0928 32.2778 22.0358C32.2964 21.9787 32.3305 21.928 32.3765 21.8894C32.4224 21.8509 32.4783 21.826 32.5376 21.8177L34.0976 21.5921L34.7952 20.1777C34.8216 20.124 34.8625 20.0788 34.9133 20.0472C34.964 20.0155 35.0226 19.9988 35.0824 19.9988C35.1423 19.9988 35.2009 20.0155 35.2516 20.0472C35.3024 20.0788 35.3433 20.124 35.3696 20.1777L36.0672 21.5921L37.6256 21.8177C37.685 21.826 37.7409 21.8509 37.7868 21.8894C37.8328 21.928 37.8669 21.9787 37.8855 22.0358C37.904 22.0928 37.9061 22.1539 37.8915 22.2121C37.877 22.2703 37.8464 22.3232 37.8032 22.3649L36.6752 23.4641L36.9408 25.0177C36.9488 25.064 36.9465 25.1115 36.9341 25.1569C36.9216 25.2022 36.8993 25.2443 36.8688 25.28C36.8382 25.3157 36.8002 25.3443 36.7573 25.3637C36.7145 25.3831 36.6679 25.3927 36.6208 25.3921H36.6256ZM35.0816 23.9393C35.1335 23.9393 35.1846 23.9519 35.2304 23.9761L36.2016 24.4865L36.016 23.4065C36.0072 23.3554 36.0108 23.3029 36.0267 23.2536C36.0426 23.2043 36.0702 23.1595 36.1072 23.1233L36.8928 22.3585L35.808 22.1985C35.7567 22.1912 35.7078 22.1715 35.6657 22.1411C35.6236 22.1107 35.5896 22.0705 35.5664 22.0241L35.0864 21.0417L34.6064 22.0241C34.5835 22.0703 34.5497 22.1104 34.5079 22.1407C34.4661 22.1711 34.4176 22.1909 34.3664 22.1985L33.2816 22.3585L34.0656 23.1233C34.1029 23.1594 34.1309 23.2041 34.147 23.2534C34.1632 23.3027 34.1671 23.3553 34.1584 23.4065L33.9632 24.4801L34.9328 23.9697C34.9793 23.9477 35.0303 23.9373 35.0816 23.9393Z" fill="#231F20"/>
<path d="M30.9887 31.8673C30.9369 31.8672 30.8858 31.8546 30.8399 31.8305L29.4399 31.0977L28.0463 31.8305C27.9936 31.8585 27.934 31.8712 27.8744 31.8671C27.8147 31.863 27.7575 31.8423 27.709 31.8073C27.6605 31.7724 27.6228 31.7245 27.6002 31.6692C27.5775 31.6139 27.5708 31.5534 27.5807 31.4945L27.8479 29.9409L26.7199 28.8401C26.6772 28.7984 26.6471 28.7455 26.6328 28.6876C26.6185 28.6296 26.6208 28.5688 26.6392 28.5121C26.6577 28.4553 26.6917 28.4049 26.7373 28.3664C26.783 28.328 26.8385 28.303 26.8975 28.2945L28.4575 28.0673L29.1551 26.6545C29.1815 26.6008 29.2224 26.5556 29.2732 26.524C29.3239 26.4923 29.3825 26.4756 29.4423 26.4756C29.5021 26.4756 29.5608 26.4923 29.6115 26.524C29.6623 26.5556 29.7032 26.6008 29.7295 26.6545L30.4271 28.0673L31.9871 28.2945C32.0461 28.3033 32.1014 28.3284 32.1468 28.3669C32.1922 28.4055 32.226 28.456 32.2443 28.5127C32.2626 28.5694 32.2647 28.6301 32.2504 28.6879C32.236 28.7458 32.2058 28.7985 32.1631 28.8401L31.0431 29.9409L31.3103 31.4945C31.3181 31.5407 31.3156 31.588 31.303 31.6332C31.2904 31.6783 31.2681 31.7202 31.2375 31.7557C31.207 31.7913 31.1691 31.8197 31.1263 31.839C31.0836 31.8582 31.0372 31.8679 30.9903 31.8673H30.9887ZM29.4399 30.4161C29.4923 30.4165 29.5438 30.4291 29.5903 30.4529L30.5599 30.9633L30.3743 29.8833C30.3657 29.8321 30.3696 29.7795 30.3858 29.7302C30.4019 29.6809 30.4299 29.6362 30.4671 29.6001L31.2511 28.8337L30.1663 28.6737C30.1152 28.6661 30.0667 28.6463 30.0249 28.616C29.9831 28.5856 29.9493 28.5455 29.9263 28.4993L29.4399 27.5201L28.9599 28.5041C28.937 28.5503 28.9032 28.5904 28.8614 28.6208C28.8196 28.6511 28.7711 28.6709 28.7199 28.6785L27.6351 28.8385L28.4191 29.6049C28.4564 29.641 28.4844 29.6857 28.5005 29.735C28.5167 29.7843 28.5206 29.8369 28.5119 29.8881L28.3199 30.9633L29.2895 30.4529C29.336 30.4288 29.3876 30.4162 29.4399 30.4161Z" fill="#231F20"/>
<path d="M54.6879 24.0192H39.9999C39.9151 24.0192 39.8337 23.9854 39.7737 23.9254C39.7136 23.8654 39.6799 23.784 39.6799 23.6992C39.6799 23.6143 39.7136 23.5329 39.7737 23.4729C39.8337 23.4129 39.9151 23.3792 39.9999 23.3792H54.6879C54.7728 23.3792 54.8542 23.4129 54.9142 23.4729C54.9742 23.5329 55.0079 23.6143 55.0079 23.6992C55.0079 23.784 54.9742 23.8654 54.9142 23.9254C54.8542 23.9854 54.7728 24.0192 54.6879 24.0192Z" fill="#231F20"/>
<path d="M61.9999 40.3199H39.9999C39.9151 40.3199 39.8337 40.2862 39.7737 40.2262C39.7136 40.1662 39.6799 40.0848 39.6799 39.9999C39.6799 39.9151 39.7136 39.8337 39.7737 39.7737C39.8337 39.7136 39.9151 39.6799 39.9999 39.6799H61.9999C62.0848 39.6799 62.1662 39.7136 62.2262 39.7737C62.2862 39.8337 62.3199 39.9151 62.3199 39.9999C62.3199 40.0848 62.2862 40.1662 62.2262 40.2262C62.1662 40.2862 62.0848 40.3199 61.9999 40.3199Z" fill="#231F20"/>
<path d="M61.1327 34.88H39.9999C39.9151 34.88 39.8337 34.8463 39.7737 34.7863C39.7136 34.7262 39.6799 34.6449 39.6799 34.56C39.6799 34.4751 39.7136 34.3937 39.7737 34.3337C39.8337 34.2737 39.9151 34.24 39.9999 34.24H61.1327C61.2176 34.24 61.299 34.2737 61.359 34.3337C61.419 34.3937 61.4527 34.4751 61.4527 34.56C61.4527 34.6449 61.419 34.7262 61.359 34.7863C61.299 34.8463 61.2176 34.88 61.1327 34.88Z" fill="#231F20"/>
<path d="M59.0559 29.4527H39.9999C39.9151 29.4527 39.8337 29.419 39.7737 29.359C39.7136 29.299 39.6799 29.2176 39.6799 29.1327C39.6799 29.0479 39.7136 28.9665 39.7737 28.9065C39.8337 28.8465 39.9151 28.8127 39.9999 28.8127H59.0559C59.1408 28.8127 59.2222 28.8465 59.2822 28.9065C59.3422 28.9665 59.3759 29.0479 59.3759 29.1327C59.3759 29.2176 59.3422 29.299 59.2822 29.359C59.2222 29.419 59.1408 29.4527 59.0559 29.4527Z" fill="#231F20"/>
<path d="M61.2433 45.7601H18.6545C18.5696 45.7601 18.4882 45.7264 18.4282 45.6664C18.3682 45.6064 18.3345 45.525 18.3345 45.4401C18.3345 45.3552 18.3682 45.2739 18.4282 45.2138C18.4882 45.1538 18.5696 45.1201 18.6545 45.1201H61.2433C61.3281 45.1201 61.4095 45.1538 61.4695 45.2138C61.5296 45.2739 61.5633 45.3552 61.5633 45.4401C61.5633 45.525 61.5296 45.6064 61.4695 45.6664C61.4095 45.7264 61.3281 45.7601 61.2433 45.7601Z" fill="#231F20"/>
<path d="M58.9952 51.1871H20.8544C20.7696 51.1871 20.6882 51.1534 20.6281 51.0934C20.5681 51.0334 20.5344 50.952 20.5344 50.8671C20.5344 50.7822 20.5681 50.7009 20.6281 50.6408C20.6882 50.5808 20.7696 50.5471 20.8544 50.5471H58.9952C59.0801 50.5471 59.1615 50.5808 59.2215 50.6408C59.2815 50.7009 59.3152 50.7822 59.3152 50.8671C59.3152 50.952 59.2815 51.0334 59.2215 51.0934C59.1615 51.1534 59.0801 51.1871 58.9952 51.1871Z" fill="#231F20"/>
<path d="M54.6801 56.6207H25.1713C25.0864 56.6207 25.0051 56.587 24.945 56.527C24.885 56.467 24.8513 56.3856 24.8513 56.3007C24.8513 56.2158 24.885 56.1344 24.945 56.0744C25.0051 56.0144 25.0864 55.9807 25.1713 55.9807H54.6801C54.765 55.9807 54.8464 56.0144 54.9064 56.0744C54.9664 56.1344 55.0001 56.2158 55.0001 56.3007C55.0001 56.3856 54.9664 56.467 54.9064 56.527C54.8464 56.587 54.765 56.6207 54.6801 56.6207Z" fill="#231F20"/>
<path d="M24.7471 38.1952C24.6948 38.1949 24.6433 38.1823 24.5967 38.1584L23.1999 37.4256L21.8047 38.1584C21.7518 38.1866 21.692 38.1994 21.6322 38.1952C21.5724 38.1911 21.515 38.1702 21.4665 38.1351C21.418 38.0999 21.3803 38.0518 21.3578 37.9962C21.3353 37.9407 21.3288 37.8799 21.3391 37.8208L21.6063 36.2672L20.4799 35.168C20.4372 35.1264 20.407 35.0738 20.3927 35.0159C20.3784 34.9581 20.3805 34.8974 20.3988 34.8407C20.417 34.784 20.4508 34.7335 20.4962 34.6949C20.5417 34.6564 20.597 34.6313 20.6559 34.6224L22.2159 34.3952L22.9135 32.9824C22.9393 32.9282 22.9799 32.8824 23.0305 32.8501C23.0812 32.8179 23.1399 32.8005 23.1999 32.8C23.2596 32.8002 23.3181 32.8171 23.3687 32.8488C23.4193 32.8804 23.46 32.9256 23.4863 32.9792L24.1839 34.392L25.7439 34.6192C25.8035 34.6276 25.8595 34.6526 25.9056 34.6914C25.9516 34.7302 25.9858 34.7811 26.0041 34.8384C26.0225 34.8957 26.0244 34.957 26.0095 35.0154C25.9946 35.0737 25.9635 35.1266 25.9199 35.168L24.7999 36.2672L25.0671 37.8208C25.0751 37.8672 25.0728 37.9147 25.0603 37.9601C25.0479 38.0054 25.0256 38.0474 24.995 38.0832C24.9645 38.1189 24.9264 38.1475 24.8836 38.1669C24.8407 38.1862 24.7941 38.1959 24.7471 38.1952ZM23.1999 36.744C23.2518 36.7437 23.303 36.7563 23.3487 36.7808L24.3183 37.2896L24.1327 36.2096C24.1241 36.1585 24.128 36.1059 24.1441 36.0566C24.1603 36.0072 24.1882 35.9626 24.2255 35.9264L25.0095 35.1616L23.9247 35.0016C23.8734 34.9939 23.8248 34.9739 23.783 34.9432C23.7412 34.9126 23.7075 34.8722 23.6847 34.8256L23.2047 33.8432L22.7247 34.8256C22.702 34.8722 22.6682 34.9126 22.6264 34.9432C22.5846 34.9739 22.536 34.9939 22.4847 35.0016L21.3999 35.1616L22.1839 35.9264C22.2212 35.9626 22.2491 36.0072 22.2653 36.0566C22.2815 36.1059 22.2854 36.1585 22.2767 36.2096L22.0799 37.2896L23.0495 36.7808C23.0959 36.7565 23.1475 36.7438 23.1999 36.744Z" fill="#231F20"/>
<path d="M36.6256 38.048C36.5738 38.048 36.5227 38.0354 36.4768 38.0112L35.0816 37.28L33.6864 38.0128C33.6336 38.0406 33.574 38.0529 33.5145 38.0486C33.455 38.0442 33.3978 38.0233 33.3496 37.9882C33.3013 37.9531 33.2638 37.9052 33.2413 37.8499C33.2189 37.7945 33.2123 37.7341 33.2224 37.6752L33.4896 36.1216L32.36 35.0224C32.3169 34.9808 32.2863 34.9279 32.2717 34.8697C32.2572 34.8115 32.2593 34.7504 32.2778 34.6933C32.2964 34.6363 32.3305 34.5856 32.3765 34.547C32.4224 34.5085 32.4783 34.4836 32.5376 34.4752L34.0976 34.2496L34.7952 32.8368C34.8216 32.7832 34.8625 32.7379 34.9133 32.7063C34.964 32.6747 35.0226 32.658 35.0824 32.658C35.1423 32.658 35.2009 32.6747 35.2516 32.7063C35.3024 32.7379 35.3433 32.7832 35.3696 32.8368L36.0672 34.2496L37.6256 34.4752C37.685 34.4836 37.7409 34.5085 37.7868 34.547C37.8328 34.5856 37.8669 34.6363 37.8855 34.6933C37.904 34.7504 37.9061 34.8115 37.8915 34.8697C37.877 34.9279 37.8464 34.9808 37.8032 35.0224L36.6752 36.1216L36.9408 37.6752C36.9488 37.7216 36.9465 37.7691 36.9341 37.8144C36.9216 37.8598 36.8993 37.9018 36.8688 37.9376C36.8382 37.9733 36.8002 38.0019 36.7573 38.0213C36.7145 38.0406 36.6679 38.0503 36.6208 38.0496L36.6256 38.048ZM35.0816 36.5968C35.1336 36.5963 35.1848 36.6089 35.2304 36.6336L36.2016 37.1424L36.016 36.0624C36.0072 36.0114 36.0108 35.9589 36.0267 35.9096C36.0426 35.8603 36.0702 35.8155 36.1072 35.7792L36.8928 35.0144L35.808 34.8544C35.7565 34.847 35.7075 34.827 35.6654 34.7964C35.6233 34.7657 35.5894 34.7252 35.5664 34.6784L35.0864 33.696L34.6064 34.6784C34.5837 34.725 34.55 34.7654 34.5082 34.796C34.4663 34.8267 34.4177 34.8467 34.3664 34.8544L33.2816 35.0144L34.0656 35.7792C34.1029 35.8154 34.1309 35.86 34.147 35.9094C34.1632 35.9587 34.1671 36.0112 34.1584 36.0624L33.9728 37.1424L34.9424 36.6336C34.9853 36.6105 35.033 36.5978 35.0816 36.5968Z" fill="#231F20"/>
</svg>
