<svg width="28" height="28" viewBox="0 0 28 28" fill="none" xmlns="http://www.w3.org/2000/svg">
<path d="M9.31812 16.544C9.31812 16.544 11.1106 18.6155 14 18.6155C16.8894 18.6155 18.6819 16.544 18.6819 16.544M9.31812 16.544C9.2425 16.6094 9.24254 16.6094 9.24258 16.6095L9.24269 16.6096L9.24304 16.61L9.24423 16.6114L9.24857 16.6163L9.26507 16.6346C9.27951 16.6504 9.30082 16.6734 9.32883 16.7024C9.38484 16.7605 9.46769 16.8429 9.57601 16.9416C9.79258 17.1389 10.1114 17.4014 10.5216 17.664C11.3418 18.1888 12.5309 18.7155 14 18.7155C15.4691 18.7155 16.6582 18.1888 17.4784 17.664C17.8886 17.4014 18.2074 17.1389 18.424 16.9416C18.5323 16.8429 18.6152 16.7605 18.6712 16.7024C18.6992 16.6734 18.7205 16.6504 18.7349 16.6346L18.7514 16.6163L18.7558 16.6114L18.7562 16.6109L18.6819 16.544M9.31812 16.544L9.24475 16.6119C9.0885 16.4432 9.04746 16.2016 9.13823 15.9919L9.13839 15.9916C9.22905 15.7844 9.43477 15.6474 9.66324 15.6448L9.31812 16.544ZM9.31812 16.544C9.18875 16.4042 9.155 16.2049 9.23 16.0317L9.31812 16.544ZM18.6819 16.544C18.7575 16.6094 18.7575 16.6094 18.7574 16.6095L18.7573 16.6096L18.757 16.61L18.7568 16.6102M18.6819 16.544C18.8094 16.4024 18.8394 16.2012 18.7625 16.0298C18.6856 15.8584 18.5131 15.7485 18.3237 15.7485C18.1831 15.7485 18.0481 15.8118 17.9581 15.918M18.7568 16.6102L17.883 15.852L17.9581 15.918M18.7568 16.6102C18.9105 16.439 18.9466 16.1958 18.8537 15.9889C18.7604 15.7808 18.5517 15.6485 18.3237 15.6485C18.1535 15.6485 17.9907 15.7249 17.8818 15.8534L17.9581 15.918M18.7568 16.6102L10.0419 15.918C10.0419 15.918 11.5738 17.6617 14 17.6617C16.4263 17.6617 17.9581 15.918 17.9581 15.918M6.12556 12.7625L6.11246 12.3888L6.11244 12.3881L6.11245 12.3884C6.11147 12.3537 6.11 12.3273 6.10875 12.3089L6.10717 12.2876L6.10688 12.284C6.10861 11.0169 7.1332 9.99903 8.41062 9.99903C9.05061 9.99903 9.6237 10.256 10.0408 10.6704L10.5694 11.1975L10.6791 11.3069L10.7336 11.1619L10.9961 10.4633L10.9962 10.463C11.7359 8.47593 13.6512 7.0538 15.9162 7.0538C18.8241 7.0538 21.1675 9.3848 21.1675 12.2705C21.1675 12.4833 21.151 12.697 21.1233 12.9175L21.0558 13.4521L21.0416 13.5646H21.155H21.6987H21.6991H21.6994H21.6998H21.7001H21.7004H21.7008H21.7011H21.7014H21.7018H21.7021H21.7024H21.7028H21.7031H21.7034H21.7037H21.7041H21.7044H21.7047H21.705H21.7053H21.7056H21.706H21.7063H21.7066H21.7069H21.7072H21.7075H21.7078H21.7081H21.7084H21.7088H21.7091H21.7094H21.7097H21.71H21.7103H21.7106H21.7109H21.7112H21.7114H21.7117H21.712H21.7123H21.7126H21.7129H21.7132H21.7135H21.7138H21.7141H21.7143H21.7146H21.7149H21.7152H21.7155H21.7157H21.716H21.7163H21.7166H21.7168H21.7171H21.7174H21.7176H21.7179H21.7182H21.7185H21.7187H21.719H21.7192H21.7195H21.7198H21.72H21.7203H21.7205H21.7208H21.7211H21.7213H21.7216H21.7218H21.7221H21.7223H21.7226H21.7228H21.723H21.7233H21.7235H21.7238H21.724H21.7243H21.7245H21.7247H21.725H21.7252H21.7254H21.7257H21.7259H21.7261H21.7264H21.7266H21.7268H21.7269C23.5079 13.5646 24.94 14.9884 24.94 16.7545C24.94 18.5224 23.5079 19.9462 21.7269 19.9462H6.6425C4.65712 19.9462 3.06 18.3585 3.06 16.3875C3.06 14.7484 4.17372 13.3782 5.68647 12.9631L5.68653 12.963L6.05215 12.8624L6.12833 12.8415L6.12556 12.7625ZM15.9162 5.9C13.4127 5.9 11.2983 7.36122 10.2465 9.4415C9.71447 9.09465 9.10405 8.84523 8.41062 8.84523C6.59551 8.84523 5.13246 10.2557 4.99106 12.0219C3.19954 12.6933 1.9 14.3732 1.9 16.3875C1.9 18.9862 4.02851 21.1 6.6425 21.1H21.7269C24.1365 21.1 26.1 19.1501 26.1 16.7545C26.1 14.5625 24.4341 12.8121 22.3125 12.5187C22.3127 12.5158 22.313 12.513 22.3133 12.5101C22.3201 12.4338 22.3275 12.3519 22.3275 12.2705C22.3275 8.75713 19.4509 5.9 15.9162 5.9ZM11.12 12.3158C10.5348 12.3158 10.06 12.7866 10.06 13.3696C10.06 13.9526 10.5348 14.4234 11.12 14.4234C11.7052 14.4234 12.18 13.9526 12.18 13.3696C12.18 12.7866 11.7052 12.3158 11.12 12.3158ZM16.88 12.3158C16.2948 12.3158 15.82 12.7866 15.82 13.3696C15.82 13.9526 16.2948 14.4234 16.88 14.4234C17.4652 14.4234 17.94 13.9526 17.94 13.3696C17.94 12.7866 17.4652 12.3158 16.88 12.3158Z" fill="black" stroke="black" stroke-width="0.2"/>
</svg>
