<svg width="80" height="80" viewBox="0 0 80 80" fill="none" xmlns="http://www.w3.org/2000/svg">
<path d="M21.12 60.744C21.0461 60.7436 20.9745 60.7176 20.9175 60.6705C20.8605 60.6233 20.8217 60.5578 20.8075 60.4852C20.7934 60.4126 20.8048 60.3373 20.8399 60.2722C20.875 60.207 20.9316 60.1561 21 60.128L29.208 56.7856C31.344 55.9141 33.6292 55.4669 35.936 55.4688H43.5056C44.9333 55.4717 46.3242 55.0163 47.4736 54.1696L60.6944 45.0496C61.6048 44.3808 61.8848 43.1792 61.4944 42.6352C61.2605 42.2998 60.9061 42.0677 60.5051 41.9872C60.1042 41.9068 59.6877 41.9841 59.3424 42.2032L48.352 48.9344C47.3024 49.5984 45.9424 50.36 44.7216 50.3312L36.96 50.1408H36.936L36.8704 50.1328C36.088 50.0336 35.5712 49.4928 35.5504 48.7648C35.5498 48.3394 35.7016 47.9279 35.9785 47.605C36.2553 47.2821 36.6388 47.0691 37.0592 47.0048L43.9616 45.2672H43.9824C44.4528 45.1808 45.9728 44.8 45.7888 43.5232C45.7291 43.109 45.5182 42.7316 45.1968 42.4637C44.8754 42.1958 44.4662 42.0562 44.048 42.072L31.92 42.512C30.3392 42.5664 28.6736 43.8816 27.5568 44.976C26.407 46.1135 25.0489 47.019 23.5568 47.6432L18.1248 49.8928C18.0463 49.9252 17.9581 49.9252 17.8797 49.8926C17.8012 49.8601 17.7389 49.7977 17.7064 49.7192C17.674 49.6407 17.674 49.5525 17.7066 49.474C17.7391 49.3956 17.8015 49.3332 17.88 49.3008L23.312 47.0512C24.7285 46.4584 26.0175 45.5985 27.1088 44.5184C28.3072 43.3456 30.112 41.9328 31.8976 41.872L44.0256 41.432C44.6018 41.4113 45.1652 41.604 45.6081 41.973C46.051 42.3421 46.3421 42.8616 46.4256 43.432C46.6016 44.6544 45.7152 45.5968 44.112 45.8944L37.2096 47.632H37.1888C36.9156 47.6668 36.6642 47.7994 36.4812 48.0054C36.2982 48.2113 36.1961 48.4765 36.1936 48.752C36.1936 48.9488 36.2832 49.4176 36.9536 49.5024H36.992L44.7536 49.688H44.8C45.848 49.688 47.1392 48.9488 48.0256 48.3888L59.016 41.6576C59.4999 41.351 60.0834 41.243 60.6449 41.3559C61.2065 41.4689 61.7028 41.7942 62.0304 42.264C62.7744 43.328 61.9712 44.9056 61.0704 45.568L47.8496 54.688C46.5923 55.6129 45.0713 56.1098 43.5104 56.1056H35.9376C33.7135 56.1037 31.5103 56.5352 29.4512 57.376L21.2416 60.72C21.2031 60.7358 21.1617 60.744 21.12 60.744Z" fill="#231F20"/>
<path d="M27.1311 45.0767C27.053 45.0774 26.9773 45.0494 26.9184 44.9981C26.8594 44.9468 26.8213 44.8758 26.8111 44.7983C26.6095 43.2815 27.7279 41.9951 28.7471 41.3535C29.5391 40.8559 30.4239 40.5535 31.2815 40.2655C31.6271 40.1487 31.9839 40.0271 32.3263 39.8959C33.7954 39.3327 35.1534 38.5143 36.3375 37.4783C36.7615 37.1087 37.1727 36.7023 37.5695 36.3103C37.9423 35.9391 38.3295 35.5567 38.7327 35.1983C40.1151 33.9695 41.4655 33.3407 42.7471 33.3279C43.0671 33.3279 43.3871 33.3279 43.6959 33.3279C44.9759 33.3407 46.3295 33.9679 47.7119 35.1983C48.1151 35.5567 48.5007 35.9391 48.8751 36.3103C49.2495 36.6815 49.6751 37.1103 50.1055 37.4783C51.2901 38.5136 52.648 39.332 54.1167 39.8959C54.4591 40.0271 54.8175 40.1487 55.1631 40.2655C56.0191 40.5551 56.9055 40.8559 57.6975 41.3535C58.0569 41.5801 58.385 41.8528 58.6735 42.1647C58.731 42.2283 58.7609 42.3122 58.7565 42.3979C58.7522 42.4836 58.714 42.564 58.6503 42.6215C58.5867 42.679 58.5028 42.7088 58.4171 42.7045C58.3314 42.7001 58.251 42.6619 58.1935 42.5983C57.9434 42.3287 57.6595 42.0926 57.3487 41.8959C56.6207 41.4383 55.8095 41.1631 54.9487 40.8719C54.5967 40.7519 54.2319 40.6287 53.8783 40.4927C52.3389 39.9027 50.916 39.0453 49.6751 37.9599C49.2367 37.5775 48.8191 37.1599 48.4159 36.7647C48.0479 36.3999 47.6671 36.0239 47.2767 35.6767C46.0127 34.5567 44.8031 33.9791 43.6799 33.9679C43.3679 33.9679 43.0575 33.9679 42.7439 33.9679C41.6239 33.9791 40.4111 34.5535 39.1487 35.6767C38.7583 36.0239 38.3775 36.3999 38.0095 36.7647C37.6063 37.1647 37.1887 37.5775 36.7503 37.9599C35.5092 39.0449 34.0863 39.9024 32.5471 40.4927C32.1919 40.6287 31.8287 40.7519 31.4767 40.8719C30.6175 41.1631 29.8063 41.4383 29.0767 41.8959C28.2191 42.4367 27.2735 43.4959 27.4335 44.7135C27.4391 44.7552 27.4365 44.7976 27.4257 44.8383C27.4149 44.879 27.3962 44.9172 27.3706 44.9506C27.3451 44.984 27.3131 45.0121 27.2767 45.0332C27.2403 45.0543 27.2001 45.068 27.1583 45.0735L27.1311 45.0767Z" fill="#231F20"/>
<path d="M43.2255 33.9664C43.1406 33.9664 43.0593 33.9327 42.9992 33.8726C42.9392 33.8126 42.9055 33.7312 42.9055 33.6464V24.8464C42.9055 24.7615 42.9392 24.6801 42.9992 24.6201C43.0593 24.5601 43.1406 24.5264 43.2255 24.5264C43.3104 24.5264 43.3918 24.5601 43.4518 24.6201C43.5118 24.6801 43.5455 24.7615 43.5455 24.8464V33.6464C43.5455 33.7312 43.5118 33.8126 43.4518 33.8726C43.3918 33.9327 43.3104 33.9664 43.2255 33.9664Z" fill="#231F20"/>
<path d="M39.3023 26.5329C37.8275 26.5484 36.399 26.0185 35.2911 25.0449C33.9055 23.7793 33.3711 21.9329 32.8671 20.1473L32.8351 20.032C32.8225 19.9881 32.8195 19.942 32.8263 19.8968C32.833 19.8516 32.8494 19.8083 32.8742 19.77C32.8991 19.7316 32.9319 19.699 32.9704 19.6744C33.0089 19.6498 33.0522 19.6337 33.0975 19.6273C34.6127 19.4129 36.1807 19.1889 37.7519 19.3553C39.5407 19.5441 41.0607 20.2497 42.0351 21.3457C42.6751 22.0577 43.5455 23.7329 43.5455 25.0257C43.5446 25.081 43.5294 25.1351 43.5014 25.1827C43.4733 25.2304 43.4334 25.27 43.3855 25.2977C42.1641 26.0795 40.7491 26.5055 39.2991 26.5281L39.3023 26.5329ZM33.5519 20.2097C34.0175 21.8337 34.5295 23.4833 35.7231 24.5729C36.7127 25.4389 37.9873 25.9089 39.3023 25.8929C40.5707 25.8724 41.8106 25.5139 42.8943 24.8544C42.8191 23.7536 42.0751 22.3585 41.5519 21.7713C40.6847 20.7953 39.3119 20.1712 37.6799 19.992C36.3199 19.84 34.9151 20.0177 33.5519 20.2097Z" fill="#231F20"/>
<path d="M41.3343 24.32C41.2698 24.32 41.2067 24.3005 41.1535 24.264C39.5936 23.1988 37.8391 22.4512 35.9903 22.064C35.9071 22.0468 35.8342 21.9973 35.7875 21.9263C35.7409 21.8554 35.7243 21.7688 35.7415 21.6856C35.7587 21.6024 35.8082 21.5295 35.8792 21.4828C35.9501 21.4362 36.0367 21.4196 36.1199 21.4368C38.0519 21.8413 39.8852 22.6226 41.5151 23.736C41.5715 23.7746 41.614 23.8303 41.6365 23.8948C41.6589 23.9593 41.6601 24.0294 41.6399 24.0946C41.6197 24.1599 41.5792 24.217 41.5242 24.2576C41.4692 24.2981 41.4026 24.32 41.3343 24.32Z" fill="#231F20"/>
<path d="M47.1489 26.4912C45.6994 26.4684 44.285 26.0424 43.0641 25.2608C43.0177 25.2321 42.9794 25.1921 42.9528 25.1445C42.9262 25.0969 42.9122 25.0433 42.9121 24.9888C42.9121 23.6912 43.7889 22.0144 44.4225 21.3088C45.3953 20.2128 46.9169 19.5072 48.7041 19.3184C50.2769 19.1584 51.8433 19.3744 53.3601 19.5904C53.4053 19.5968 53.4487 19.6129 53.4872 19.6375C53.5257 19.6622 53.5585 19.6947 53.5834 19.7331C53.6082 19.7714 53.6246 19.8147 53.6313 19.8599C53.6381 19.9051 53.6351 19.9512 53.6225 19.9952L53.5889 20.1104C53.0785 21.896 52.5505 23.7424 51.1649 25.008C50.055 25.9808 48.6247 26.5091 47.1489 26.4912ZM43.5521 24.8128C44.6358 25.4722 45.8757 25.8307 47.1441 25.8512C48.4591 25.8672 49.7337 25.3972 50.7233 24.5312C51.9153 23.4416 52.4289 21.792 52.8945 20.168C51.5313 19.976 50.1313 19.8048 48.7601 19.9504C47.1313 20.1216 45.7569 20.7504 44.8897 21.7296C44.3713 22.3168 43.6273 23.712 43.5521 24.8128Z" fill="#231F20"/>
<path d="M45.12 24.2768C45.0517 24.2768 44.9851 24.2549 44.9301 24.2143C44.8751 24.1738 44.8346 24.1167 44.8144 24.0514C44.7942 23.9862 44.7954 23.9161 44.8178 23.8516C44.8403 23.7871 44.8828 23.7314 44.9392 23.6928C46.5691 22.5793 48.4024 21.7981 50.3344 21.3936C50.4176 21.3764 50.5042 21.393 50.5751 21.4396C50.6461 21.4863 50.6956 21.5592 50.7128 21.6424C50.73 21.7256 50.7134 21.8122 50.6668 21.8831C50.6201 21.9541 50.5472 22.0036 50.464 22.0208C48.6152 22.408 46.8607 23.1555 45.3008 24.2208C45.2476 24.2573 45.1845 24.2768 45.12 24.2768Z" fill="#231F20"/>
<path d="M40.0001 38.216C39.9118 38.216 39.8255 38.1899 39.7521 38.1408C39.6787 38.0918 39.6215 38.022 39.5877 37.9405C39.5539 37.8589 39.5451 37.7692 39.5623 37.6826C39.5795 37.596 39.622 37.5164 39.6845 37.454C39.7469 37.3916 39.8264 37.349 39.913 37.3318C39.9996 37.3146 40.0894 37.3234 40.1709 37.3572C40.2525 37.391 40.3222 37.4482 40.3713 37.5216C40.4203 37.595 40.4465 37.6814 40.4465 37.7696C40.4465 37.888 40.3995 38.0016 40.3158 38.0853C40.232 38.169 40.1185 38.216 40.0001 38.216Z" fill="#231F20"/>
<path d="M50.0799 41.04C49.9917 41.04 49.9053 41.0138 49.8319 40.9648C49.7585 40.9157 49.7013 40.846 49.6675 40.7645C49.6337 40.6829 49.6249 40.5931 49.6421 40.5065C49.6593 40.4199 49.7019 40.3404 49.7643 40.278C49.8267 40.2155 49.9063 40.173 49.9929 40.1558C50.0794 40.1386 50.1692 40.1474 50.2508 40.1812C50.3323 40.215 50.4021 40.2722 50.4511 40.3456C50.5002 40.419 50.5263 40.5053 50.5263 40.5936C50.5259 40.7119 50.4787 40.8252 50.3951 40.9088C50.3115 40.9924 50.1982 41.0396 50.0799 41.04Z" fill="#231F20"/>
<path d="M36.5985 41.4192C36.5102 41.4192 36.4239 41.393 36.3505 41.3439C36.2771 41.2949 36.2199 41.2252 36.1861 41.1436C36.1523 41.062 36.1435 40.9723 36.1607 40.8857C36.1779 40.7991 36.2204 40.7195 36.2828 40.6571C36.3453 40.5947 36.4248 40.5522 36.5114 40.5349C36.598 40.5177 36.6878 40.5266 36.7693 40.5603C36.8509 40.5941 36.9206 40.6513 36.9697 40.7248C37.0187 40.7982 37.0449 40.8845 37.0449 40.9728C37.0449 41.0912 36.9979 41.2047 36.9141 41.2884C36.8304 41.3721 36.7169 41.4192 36.5985 41.4192Z" fill="#231F20"/>
<path d="M47.8817 43.52C47.7934 43.52 47.7071 43.4938 47.6337 43.4448C47.5603 43.3957 47.5031 43.326 47.4693 43.2444C47.4355 43.1629 47.4267 43.0731 47.4439 42.9865C47.4611 42.8999 47.5036 42.8204 47.566 42.7579C47.6285 42.6955 47.708 42.653 47.7946 42.6358C47.8812 42.6185 47.971 42.6274 48.0525 42.6612C48.1341 42.695 48.2038 42.7522 48.2529 42.8256C48.3019 42.899 48.3281 42.9853 48.3281 43.0736C48.3277 43.1919 48.2805 43.3052 48.1969 43.3888C48.1133 43.4724 48 43.5196 47.8817 43.52Z" fill="#231F20"/>
<path d="M43.9264 37.5615C43.8381 37.5615 43.7518 37.5353 43.6784 37.4863C43.605 37.4372 43.5477 37.3675 43.514 37.2859C43.4802 37.2044 43.4713 37.1146 43.4886 37.028C43.5058 36.9414 43.5483 36.8619 43.6107 36.7995C43.6732 36.737 43.7527 36.6945 43.8393 36.6773C43.9259 36.6601 44.0156 36.6689 44.0972 36.7027C44.1788 36.7365 44.2485 36.7937 44.2975 36.8671C44.3466 36.9405 44.3728 37.0268 44.3728 37.1151C44.3728 37.2335 44.3257 37.347 44.242 37.4308C44.1583 37.5145 44.0448 37.5615 43.9264 37.5615Z" fill="#231F20"/>
<path d="M41.6 48.1601C41.5117 48.1601 41.4254 48.1339 41.352 48.0849C41.2785 48.0358 41.2213 47.9661 41.1875 47.8846C41.1538 47.803 41.1449 47.7132 41.1621 47.6266C41.1794 47.5401 41.2219 47.4605 41.2843 47.3981C41.3467 47.3357 41.4263 47.2931 41.5129 47.2759C41.5995 47.2587 41.6892 47.2675 41.7708 47.3013C41.8524 47.3351 41.9221 47.3923 41.9711 47.4657C42.0202 47.5391 42.0464 47.6254 42.0464 47.7137C42.0464 47.7724 42.0348 47.8304 42.0124 47.8846C41.9899 47.9387 41.9571 47.9879 41.9156 48.0294C41.8742 48.0708 41.825 48.1037 41.7708 48.1261C41.7166 48.1486 41.6586 48.1601 41.6 48.1601Z" fill="#231F20"/>
<path d="M46.0511 47.3327C45.9628 47.3327 45.8765 47.3066 45.8031 47.2575C45.7297 47.2085 45.6725 47.1387 45.6387 47.0572C45.6049 46.9756 45.5961 46.8858 45.6133 46.7992C45.6305 46.7127 45.6731 46.6331 45.7355 46.5707C45.7979 46.5083 45.8775 46.4657 45.964 46.4485C46.0506 46.4313 46.1404 46.4401 46.222 46.4739C46.3035 46.5077 46.3732 46.5649 46.4223 46.6383C46.4713 46.7117 46.4975 46.7981 46.4975 46.8863C46.4971 47.0046 46.4499 47.1179 46.3663 47.2015C46.2827 47.2851 46.1694 47.3323 46.0511 47.3327Z" fill="#231F20"/>
<path d="M50.2128 45.2031C50.1245 45.2031 50.0382 45.1769 49.9648 45.1279C49.8913 45.0788 49.8341 45.0091 49.8003 44.9275C49.7666 44.846 49.7577 44.7562 49.7749 44.6696C49.7922 44.583 49.8347 44.5035 49.8971 44.441C49.9595 44.3786 50.0391 44.3361 50.1257 44.3189C50.2123 44.3017 50.302 44.3105 50.3836 44.3443C50.4651 44.3781 50.5349 44.4353 50.5839 44.5087C50.633 44.5821 50.6591 44.6684 50.6591 44.7567C50.6587 44.875 50.6116 44.9883 50.5279 45.0719C50.4443 45.1555 50.331 45.2027 50.2128 45.2031Z" fill="#231F20"/>
<path d="M53.1425 43.0063C53.0542 43.0063 52.9679 42.9801 52.8944 42.9311C52.821 42.882 52.7638 42.8123 52.73 42.7308C52.6962 42.6492 52.6874 42.5594 52.7046 42.4728C52.7218 42.3862 52.7644 42.3067 52.8268 42.2443C52.8892 42.1818 52.9688 42.1393 53.0554 42.1221C53.142 42.1049 53.2317 42.1137 53.3133 42.1475C53.3949 42.1813 53.4646 42.2385 53.5136 42.3119C53.5627 42.3853 53.5889 42.4716 53.5889 42.5599C53.5884 42.6782 53.5413 42.7915 53.4576 42.8751C53.374 42.9587 53.2607 43.0059 53.1425 43.0063Z" fill="#231F20"/>
<path d="M41.848 40.9136C41.7597 40.9136 41.6734 40.8874 41.6 40.8383C41.5266 40.7893 41.4694 40.7196 41.4356 40.638C41.4018 40.5564 41.393 40.4667 41.4102 40.3801C41.4274 40.2935 41.4699 40.2139 41.5324 40.1515C41.5948 40.0891 41.6743 40.0466 41.7609 40.0293C41.8475 40.0121 41.9373 40.0209 42.0188 40.0547C42.1004 40.0885 42.1701 40.1457 42.2192 40.2191C42.2682 40.2926 42.2944 40.3789 42.2944 40.4672C42.2944 40.5855 42.2474 40.6991 42.1637 40.7828C42.0799 40.8665 41.9664 40.9136 41.848 40.9136Z" fill="#231F20"/>
<path d="M47.2417 38.216C47.1533 38.2164 47.0669 38.1905 46.9933 38.1416C46.9196 38.0927 46.8622 38.0231 46.8281 37.9416C46.7941 37.86 46.785 37.7702 46.8021 37.6835C46.8191 37.5968 46.8615 37.5171 46.9239 37.4546C46.9862 37.392 47.0658 37.3493 47.1524 37.3319C47.2391 37.3146 47.3289 37.3233 47.4106 37.3571C47.4922 37.3908 47.562 37.448 47.6112 37.5215C47.6603 37.5949 47.6865 37.6813 47.6865 37.7696C47.6865 37.8878 47.6397 38.0011 47.5563 38.0847C47.4729 38.1684 47.3598 38.2156 47.2417 38.216Z" fill="#231F20"/>
<path d="M45.92 41.1665C45.8317 41.1665 45.7454 41.1403 45.672 41.0912C45.5986 41.0422 45.5414 40.9725 45.5076 40.8909C45.4738 40.8093 45.465 40.7196 45.4822 40.633C45.4994 40.5464 45.5419 40.4669 45.6044 40.4044C45.6668 40.342 45.7463 40.2995 45.8329 40.2823C45.9195 40.265 46.0093 40.2739 46.0909 40.3077C46.1724 40.3414 46.2421 40.3987 46.2912 40.4721C46.3402 40.5455 46.3664 40.6318 46.3664 40.7201C46.3664 40.8385 46.3194 40.952 46.2357 41.0357C46.152 41.1194 46.0384 41.1665 45.92 41.1665Z" fill="#231F20"/>
</svg>
