<svg width="26" height="26" viewBox="0 0 26 26" fill="none" xmlns="http://www.w3.org/2000/svg">
<mask id="path-1-outside-1" maskUnits="userSpaceOnUse" x="1.07983" y="0.552979" width="24" height="25" fill="black">
<rect fill="white" x="1.07983" y="0.552979" width="24" height="25"/>
<path d="M14.0409 1.55298C13.903 1.55272 13.7706 1.60726 13.6729 1.70458C13.5752 1.80191 13.5202 1.93406 13.5199 2.07196C13.5199 2.07196 13.518 2.67962 13.9231 3.27954C14.3282 3.87946 15.1455 4.48437 16.5708 4.67501C17.3567 4.78006 18.2865 4.91089 19.0743 5.35751C19.8622 5.80413 20.54 6.53499 20.8669 8.04079C21.1408 9.30273 21.6434 10.0615 22.0491 10.7231C22.4548 11.3846 22.7744 11.9423 22.8819 13.0499C22.8951 13.1872 22.9623 13.3137 23.0688 13.4015C23.1753 13.4893 23.3123 13.5313 23.4496 13.5181C23.587 13.5049 23.7135 13.4376 23.8013 13.3312C23.8891 13.2247 23.9311 13.0877 23.9179 12.9503C23.793 11.6643 23.3562 10.8653 22.9357 10.1797C22.5153 9.4941 22.1214 8.91513 21.8836 7.81939C21.5049 6.07519 20.5989 5.02608 19.5872 4.45259C18.5756 3.8791 17.4908 3.74968 16.7089 3.64517C15.5062 3.48429 15.0232 3.04979 14.7854 2.69759C14.5475 2.34539 14.5599 2.08821 14.5599 2.08821C14.5619 2.01874 14.55 1.94957 14.5248 1.88478C14.4997 1.81999 14.4618 1.76091 14.4134 1.71101C14.365 1.66111 14.3071 1.62142 14.2432 1.59428C14.1792 1.56714 14.1104 1.55309 14.0409 1.55298ZM9.87176 2.07298C9.73403 2.07513 9.60277 2.13184 9.50681 2.23067C9.41084 2.32949 9.358 2.46235 9.35989 2.60009C9.35989 2.60009 9.35713 3.08337 9.15575 3.63196C8.95436 4.18056 8.60077 4.72751 7.84051 4.96345C7.22492 5.15444 6.42203 5.35106 5.51676 5.89681C5.51642 5.89681 5.51608 5.89681 5.51575 5.89681C4.26583 6.65098 3.11989 8.03999 3.11989 10.3351C3.11989 11.3895 2.91581 11.7548 2.65778 12.2556C2.39974 12.7565 2.07989 13.4035 2.07989 14.5601C2.07891 14.629 2.09164 14.6974 2.11734 14.7614C2.14303 14.8253 2.18118 14.8835 2.22956 14.9326C2.27795 14.9816 2.3356 15.0206 2.39917 15.0472C2.46275 15.0738 2.53097 15.0875 2.59989 15.0875C2.6688 15.0875 2.73702 15.0738 2.8006 15.0472C2.86417 15.0206 2.92183 14.9816 2.97021 14.9326C3.01859 14.8835 3.05674 14.8253 3.08244 14.7614C3.10813 14.6974 3.12086 14.629 3.11989 14.5601C3.11989 13.5716 3.32003 13.2404 3.582 12.732C3.84396 12.2235 4.15989 11.5484 4.15989 10.3351C4.15989 8.36658 5.01939 7.41134 6.05301 6.78751C6.8211 6.32446 7.48773 6.16198 8.14926 5.95673C9.274 5.60767 9.86291 4.72462 10.1328 3.98946C10.4026 3.25431 10.3999 2.60009 10.3999 2.60009C10.4008 2.53052 10.3878 2.46146 10.3616 2.39701C10.3354 2.33257 10.2965 2.27403 10.2473 2.22488C10.198 2.17573 10.1394 2.13696 10.0749 2.11087C10.0104 2.08478 9.94133 2.07189 9.87176 2.07298ZM19.2165 10.4082C19.0839 10.4139 18.9585 10.4701 18.866 10.5653C18.7735 10.6604 18.7208 10.7874 18.7189 10.9201C18.7189 13.9823 18.1989 15.4268 18.1989 16.6401C18.1989 17.1021 18.2121 18.0217 18.2121 18.2651C18.2121 19.9984 19.2389 21.4571 19.2389 23.9201C19.2379 23.989 19.2506 24.0574 19.2763 24.1213C19.302 24.1853 19.3402 24.2435 19.3885 24.2926C19.4369 24.3416 19.4946 24.3806 19.5582 24.4072C19.6217 24.4338 19.69 24.4475 19.7589 24.4475C19.8278 24.4475 19.896 24.4338 19.9596 24.4072C20.0232 24.3806 20.0808 24.3416 20.1292 24.2926C20.1776 24.2435 20.2157 24.1853 20.2414 24.1213C20.2671 24.0574 20.2798 23.989 20.2789 23.9201C20.2789 21.1831 19.2521 19.5218 19.2521 18.2651C19.2521 17.9884 19.2389 17.0829 19.2389 16.6401C19.2389 16.1249 19.3986 15.175 19.5476 13.9426C19.7884 14.3082 20.08 14.6664 20.4861 14.9745C20.5403 15.0182 20.6027 15.0506 20.6696 15.0698C20.7366 15.089 20.8067 15.0945 20.8759 15.086C20.945 15.0776 21.0117 15.0553 21.0721 15.0206C21.1325 14.9858 21.1852 14.9393 21.2273 14.8838C21.2693 14.8283 21.2998 14.7649 21.3169 14.6973C21.334 14.6298 21.3373 14.5595 21.3267 14.4907C21.3161 14.4219 21.2918 14.3559 21.2552 14.2966C21.2186 14.2373 21.1705 14.186 21.1137 14.1457C19.7713 13.1272 19.7589 11.4397 19.7589 10.9201C19.7578 10.8506 19.7429 10.782 19.7149 10.7183C19.6869 10.6547 19.6464 10.5973 19.5958 10.5496C19.5453 10.5019 19.4856 10.4648 19.4205 10.4405C19.3553 10.4162 19.286 10.4052 19.2165 10.4082ZM6.73754 11.4482C6.60494 11.4539 6.47953 11.5101 6.38701 11.6053C6.29448 11.7004 6.24185 11.8274 6.23989 11.9601C6.23989 12.4801 6.2364 14.2895 4.82512 15.7595C4.77727 15.8087 4.7396 15.8667 4.71428 15.9305C4.68896 15.9942 4.6765 16.0623 4.67761 16.1309C4.67872 16.1994 4.69337 16.2671 4.72074 16.33C4.7481 16.3929 4.78762 16.4497 4.83704 16.4972C4.88646 16.5448 4.94479 16.5821 5.00867 16.607C5.07256 16.6319 5.14075 16.6439 5.2093 16.6424C5.27786 16.6408 5.34543 16.6258 5.40813 16.598C5.47083 16.5702 5.52743 16.5304 5.57465 16.4806C6.06235 15.9726 6.38536 15.4354 6.63395 14.9054C6.68717 15.0977 6.7311 15.339 6.78629 15.5046C7.05725 16.3175 7.27989 16.8134 7.27989 17.1601V18.7201C7.27989 18.9801 6.93859 19.7985 6.54153 20.7249C6.14446 21.6514 5.71989 22.7501 5.71989 23.9201C5.71891 23.989 5.73164 24.0574 5.75734 24.1213C5.78303 24.1853 5.82118 24.2435 5.86956 24.2926C5.91795 24.3416 5.9756 24.3806 6.03917 24.4072C6.10275 24.4338 6.17097 24.4475 6.23989 24.4475C6.3088 24.4475 6.37703 24.4338 6.4406 24.4072C6.50417 24.3806 6.56183 24.3416 6.61021 24.2926C6.65859 24.2435 6.69674 24.1853 6.72243 24.1213C6.74813 24.0574 6.76086 23.989 6.75989 23.9201C6.75989 23.0101 7.11531 22.0288 7.49825 21.1352C7.88118 20.2417 8.31989 19.5001 8.31989 18.7201V17.1601C8.31989 16.4668 8.02252 15.9227 7.77348 15.1756C7.52444 14.4284 7.27989 13.4623 7.27989 11.9601C7.27886 11.8906 7.2639 11.822 7.23589 11.7583C7.20789 11.6947 7.16741 11.6373 7.11685 11.5896C7.06628 11.5419 7.00666 11.5048 6.94151 11.4805C6.87636 11.4562 6.80701 11.4452 6.73754 11.4482ZM12.9999 15.6001L10.3999 19.2401H12.4799L10.3999 22.8801L15.5999 18.2001H13.5199L15.5999 15.6001H12.9999Z"/>
</mask>
<path d="M14.0409 1.55298C13.903 1.55272 13.7706 1.60726 13.6729 1.70458C13.5752 1.80191 13.5202 1.93406 13.5199 2.07196C13.5199 2.07196 13.518 2.67962 13.9231 3.27954C14.3282 3.87946 15.1455 4.48437 16.5708 4.67501C17.3567 4.78006 18.2865 4.91089 19.0743 5.35751C19.8622 5.80413 20.54 6.53499 20.8669 8.04079C21.1408 9.30273 21.6434 10.0615 22.0491 10.7231C22.4548 11.3846 22.7744 11.9423 22.8819 13.0499C22.8951 13.1872 22.9623 13.3137 23.0688 13.4015C23.1753 13.4893 23.3123 13.5313 23.4496 13.5181C23.587 13.5049 23.7135 13.4376 23.8013 13.3312C23.8891 13.2247 23.9311 13.0877 23.9179 12.9503C23.793 11.6643 23.3562 10.8653 22.9357 10.1797C22.5153 9.4941 22.1214 8.91513 21.8836 7.81939C21.5049 6.07519 20.5989 5.02608 19.5872 4.45259C18.5756 3.8791 17.4908 3.74968 16.7089 3.64517C15.5062 3.48429 15.0232 3.04979 14.7854 2.69759C14.5475 2.34539 14.5599 2.08821 14.5599 2.08821C14.5619 2.01874 14.55 1.94957 14.5248 1.88478C14.4997 1.81999 14.4618 1.76091 14.4134 1.71101C14.365 1.66111 14.3071 1.62142 14.2432 1.59428C14.1792 1.56714 14.1104 1.55309 14.0409 1.55298ZM9.87176 2.07298C9.73403 2.07513 9.60277 2.13184 9.50681 2.23067C9.41084 2.32949 9.358 2.46235 9.35989 2.60009C9.35989 2.60009 9.35713 3.08337 9.15575 3.63196C8.95436 4.18056 8.60077 4.72751 7.84051 4.96345C7.22492 5.15444 6.42203 5.35106 5.51676 5.89681C5.51642 5.89681 5.51608 5.89681 5.51575 5.89681C4.26583 6.65098 3.11989 8.03999 3.11989 10.3351C3.11989 11.3895 2.91581 11.7548 2.65778 12.2556C2.39974 12.7565 2.07989 13.4035 2.07989 14.5601C2.07891 14.629 2.09164 14.6974 2.11734 14.7614C2.14303 14.8253 2.18118 14.8835 2.22956 14.9326C2.27795 14.9816 2.3356 15.0206 2.39917 15.0472C2.46275 15.0738 2.53097 15.0875 2.59989 15.0875C2.6688 15.0875 2.73702 15.0738 2.8006 15.0472C2.86417 15.0206 2.92183 14.9816 2.97021 14.9326C3.01859 14.8835 3.05674 14.8253 3.08244 14.7614C3.10813 14.6974 3.12086 14.629 3.11989 14.5601C3.11989 13.5716 3.32003 13.2404 3.582 12.732C3.84396 12.2235 4.15989 11.5484 4.15989 10.3351C4.15989 8.36658 5.01939 7.41134 6.05301 6.78751C6.8211 6.32446 7.48773 6.16198 8.14926 5.95673C9.274 5.60767 9.86291 4.72462 10.1328 3.98946C10.4026 3.25431 10.3999 2.60009 10.3999 2.60009C10.4008 2.53052 10.3878 2.46146 10.3616 2.39701C10.3354 2.33257 10.2965 2.27403 10.2473 2.22488C10.198 2.17573 10.1394 2.13696 10.0749 2.11087C10.0104 2.08478 9.94133 2.07189 9.87176 2.07298ZM19.2165 10.4082C19.0839 10.4139 18.9585 10.4701 18.866 10.5653C18.7735 10.6604 18.7208 10.7874 18.7189 10.9201C18.7189 13.9823 18.1989 15.4268 18.1989 16.6401C18.1989 17.1021 18.2121 18.0217 18.2121 18.2651C18.2121 19.9984 19.2389 21.4571 19.2389 23.9201C19.2379 23.989 19.2506 24.0574 19.2763 24.1213C19.302 24.1853 19.3402 24.2435 19.3885 24.2926C19.4369 24.3416 19.4946 24.3806 19.5582 24.4072C19.6217 24.4338 19.69 24.4475 19.7589 24.4475C19.8278 24.4475 19.896 24.4338 19.9596 24.4072C20.0232 24.3806 20.0808 24.3416 20.1292 24.2926C20.1776 24.2435 20.2157 24.1853 20.2414 24.1213C20.2671 24.0574 20.2798 23.989 20.2789 23.9201C20.2789 21.1831 19.2521 19.5218 19.2521 18.2651C19.2521 17.9884 19.2389 17.0829 19.2389 16.6401C19.2389 16.1249 19.3986 15.175 19.5476 13.9426C19.7884 14.3082 20.08 14.6664 20.4861 14.9745C20.5403 15.0182 20.6027 15.0506 20.6696 15.0698C20.7366 15.089 20.8067 15.0945 20.8759 15.086C20.945 15.0776 21.0117 15.0553 21.0721 15.0206C21.1325 14.9858 21.1852 14.9393 21.2273 14.8838C21.2693 14.8283 21.2998 14.7649 21.3169 14.6973C21.334 14.6298 21.3373 14.5595 21.3267 14.4907C21.3161 14.4219 21.2918 14.3559 21.2552 14.2966C21.2186 14.2373 21.1705 14.186 21.1137 14.1457C19.7713 13.1272 19.7589 11.4397 19.7589 10.9201C19.7578 10.8506 19.7429 10.782 19.7149 10.7183C19.6869 10.6547 19.6464 10.5973 19.5958 10.5496C19.5453 10.5019 19.4856 10.4648 19.4205 10.4405C19.3553 10.4162 19.286 10.4052 19.2165 10.4082ZM6.73754 11.4482C6.60494 11.4539 6.47953 11.5101 6.38701 11.6053C6.29448 11.7004 6.24185 11.8274 6.23989 11.9601C6.23989 12.4801 6.2364 14.2895 4.82512 15.7595C4.77727 15.8087 4.7396 15.8667 4.71428 15.9305C4.68896 15.9942 4.6765 16.0623 4.67761 16.1309C4.67872 16.1994 4.69337 16.2671 4.72074 16.33C4.7481 16.3929 4.78762 16.4497 4.83704 16.4972C4.88646 16.5448 4.94479 16.5821 5.00867 16.607C5.07256 16.6319 5.14075 16.6439 5.2093 16.6424C5.27786 16.6408 5.34543 16.6258 5.40813 16.598C5.47083 16.5702 5.52743 16.5304 5.57465 16.4806C6.06235 15.9726 6.38536 15.4354 6.63395 14.9054C6.68717 15.0977 6.7311 15.339 6.78629 15.5046C7.05725 16.3175 7.27989 16.8134 7.27989 17.1601V18.7201C7.27989 18.9801 6.93859 19.7985 6.54153 20.7249C6.14446 21.6514 5.71989 22.7501 5.71989 23.9201C5.71891 23.989 5.73164 24.0574 5.75734 24.1213C5.78303 24.1853 5.82118 24.2435 5.86956 24.2926C5.91795 24.3416 5.9756 24.3806 6.03917 24.4072C6.10275 24.4338 6.17097 24.4475 6.23989 24.4475C6.3088 24.4475 6.37703 24.4338 6.4406 24.4072C6.50417 24.3806 6.56183 24.3416 6.61021 24.2926C6.65859 24.2435 6.69674 24.1853 6.72243 24.1213C6.74813 24.0574 6.76086 23.989 6.75989 23.9201C6.75989 23.0101 7.11531 22.0288 7.49825 21.1352C7.88118 20.2417 8.31989 19.5001 8.31989 18.7201V17.1601C8.31989 16.4668 8.02252 15.9227 7.77348 15.1756C7.52444 14.4284 7.27989 13.4623 7.27989 11.9601C7.27886 11.8906 7.2639 11.822 7.23589 11.7583C7.20789 11.6947 7.16741 11.6373 7.11685 11.5896C7.06628 11.5419 7.00666 11.5048 6.94151 11.4805C6.87636 11.4562 6.80701 11.4452 6.73754 11.4482ZM12.9999 15.6001L10.3999 19.2401H12.4799L10.3999 22.8801L15.5999 18.2001H13.5199L15.5999 15.6001H12.9999Z" fill="black"/>
<path d="M14.0409 1.55298C13.903 1.55272 13.7706 1.60726 13.6729 1.70458C13.5752 1.80191 13.5202 1.93406 13.5199 2.07196C13.5199 2.07196 13.518 2.67962 13.9231 3.27954C14.3282 3.87946 15.1455 4.48437 16.5708 4.67501C17.3567 4.78006 18.2865 4.91089 19.0743 5.35751C19.8622 5.80413 20.54 6.53499 20.8669 8.04079C21.1408 9.30273 21.6434 10.0615 22.0491 10.7231C22.4548 11.3846 22.7744 11.9423 22.8819 13.0499C22.8951 13.1872 22.9623 13.3137 23.0688 13.4015C23.1753 13.4893 23.3123 13.5313 23.4496 13.5181C23.587 13.5049 23.7135 13.4376 23.8013 13.3312C23.8891 13.2247 23.9311 13.0877 23.9179 12.9503C23.793 11.6643 23.3562 10.8653 22.9357 10.1797C22.5153 9.4941 22.1214 8.91513 21.8836 7.81939C21.5049 6.07519 20.5989 5.02608 19.5872 4.45259C18.5756 3.8791 17.4908 3.74968 16.7089 3.64517C15.5062 3.48429 15.0232 3.04979 14.7854 2.69759C14.5475 2.34539 14.5599 2.08821 14.5599 2.08821C14.5619 2.01874 14.55 1.94957 14.5248 1.88478C14.4997 1.81999 14.4618 1.76091 14.4134 1.71101C14.365 1.66111 14.3071 1.62142 14.2432 1.59428C14.1792 1.56714 14.1104 1.55309 14.0409 1.55298ZM9.87176 2.07298C9.73403 2.07513 9.60277 2.13184 9.50681 2.23067C9.41084 2.32949 9.358 2.46235 9.35989 2.60009C9.35989 2.60009 9.35713 3.08337 9.15575 3.63196C8.95436 4.18056 8.60077 4.72751 7.84051 4.96345C7.22492 5.15444 6.42203 5.35106 5.51676 5.89681C5.51642 5.89681 5.51608 5.89681 5.51575 5.89681C4.26583 6.65098 3.11989 8.03999 3.11989 10.3351C3.11989 11.3895 2.91581 11.7548 2.65778 12.2556C2.39974 12.7565 2.07989 13.4035 2.07989 14.5601C2.07891 14.629 2.09164 14.6974 2.11734 14.7614C2.14303 14.8253 2.18118 14.8835 2.22956 14.9326C2.27795 14.9816 2.3356 15.0206 2.39917 15.0472C2.46275 15.0738 2.53097 15.0875 2.59989 15.0875C2.6688 15.0875 2.73702 15.0738 2.8006 15.0472C2.86417 15.0206 2.92183 14.9816 2.97021 14.9326C3.01859 14.8835 3.05674 14.8253 3.08244 14.7614C3.10813 14.6974 3.12086 14.629 3.11989 14.5601C3.11989 13.5716 3.32003 13.2404 3.582 12.732C3.84396 12.2235 4.15989 11.5484 4.15989 10.3351C4.15989 8.36658 5.01939 7.41134 6.05301 6.78751C6.8211 6.32446 7.48773 6.16198 8.14926 5.95673C9.274 5.60767 9.86291 4.72462 10.1328 3.98946C10.4026 3.25431 10.3999 2.60009 10.3999 2.60009C10.4008 2.53052 10.3878 2.46146 10.3616 2.39701C10.3354 2.33257 10.2965 2.27403 10.2473 2.22488C10.198 2.17573 10.1394 2.13696 10.0749 2.11087C10.0104 2.08478 9.94133 2.07189 9.87176 2.07298ZM19.2165 10.4082C19.0839 10.4139 18.9585 10.4701 18.866 10.5653C18.7735 10.6604 18.7208 10.7874 18.7189 10.9201C18.7189 13.9823 18.1989 15.4268 18.1989 16.6401C18.1989 17.1021 18.2121 18.0217 18.2121 18.2651C18.2121 19.9984 19.2389 21.4571 19.2389 23.9201C19.2379 23.989 19.2506 24.0574 19.2763 24.1213C19.302 24.1853 19.3402 24.2435 19.3885 24.2926C19.4369 24.3416 19.4946 24.3806 19.5582 24.4072C19.6217 24.4338 19.69 24.4475 19.7589 24.4475C19.8278 24.4475 19.896 24.4338 19.9596 24.4072C20.0232 24.3806 20.0808 24.3416 20.1292 24.2926C20.1776 24.2435 20.2157 24.1853 20.2414 24.1213C20.2671 24.0574 20.2798 23.989 20.2789 23.9201C20.2789 21.1831 19.2521 19.5218 19.2521 18.2651C19.2521 17.9884 19.2389 17.0829 19.2389 16.6401C19.2389 16.1249 19.3986 15.175 19.5476 13.9426C19.7884 14.3082 20.08 14.6664 20.4861 14.9745C20.5403 15.0182 20.6027 15.0506 20.6696 15.0698C20.7366 15.089 20.8067 15.0945 20.8759 15.086C20.945 15.0776 21.0117 15.0553 21.0721 15.0206C21.1325 14.9858 21.1852 14.9393 21.2273 14.8838C21.2693 14.8283 21.2998 14.7649 21.3169 14.6973C21.334 14.6298 21.3373 14.5595 21.3267 14.4907C21.3161 14.4219 21.2918 14.3559 21.2552 14.2966C21.2186 14.2373 21.1705 14.186 21.1137 14.1457C19.7713 13.1272 19.7589 11.4397 19.7589 10.9201C19.7578 10.8506 19.7429 10.782 19.7149 10.7183C19.6869 10.6547 19.6464 10.5973 19.5958 10.5496C19.5453 10.5019 19.4856 10.4648 19.4205 10.4405C19.3553 10.4162 19.286 10.4052 19.2165 10.4082ZM6.73754 11.4482C6.60494 11.4539 6.47953 11.5101 6.38701 11.6053C6.29448 11.7004 6.24185 11.8274 6.23989 11.9601C6.23989 12.4801 6.2364 14.2895 4.82512 15.7595C4.77727 15.8087 4.7396 15.8667 4.71428 15.9305C4.68896 15.9942 4.6765 16.0623 4.67761 16.1309C4.67872 16.1994 4.69337 16.2671 4.72074 16.33C4.7481 16.3929 4.78762 16.4497 4.83704 16.4972C4.88646 16.5448 4.94479 16.5821 5.00867 16.607C5.07256 16.6319 5.14075 16.6439 5.2093 16.6424C5.27786 16.6408 5.34543 16.6258 5.40813 16.598C5.47083 16.5702 5.52743 16.5304 5.57465 16.4806C6.06235 15.9726 6.38536 15.4354 6.63395 14.9054C6.68717 15.0977 6.7311 15.339 6.78629 15.5046C7.05725 16.3175 7.27989 16.8134 7.27989 17.1601V18.7201C7.27989 18.9801 6.93859 19.7985 6.54153 20.7249C6.14446 21.6514 5.71989 22.7501 5.71989 23.9201C5.71891 23.989 5.73164 24.0574 5.75734 24.1213C5.78303 24.1853 5.82118 24.2435 5.86956 24.2926C5.91795 24.3416 5.9756 24.3806 6.03917 24.4072C6.10275 24.4338 6.17097 24.4475 6.23989 24.4475C6.3088 24.4475 6.37703 24.4338 6.4406 24.4072C6.50417 24.3806 6.56183 24.3416 6.61021 24.2926C6.65859 24.2435 6.69674 24.1853 6.72243 24.1213C6.74813 24.0574 6.76086 23.989 6.75989 23.9201C6.75989 23.0101 7.11531 22.0288 7.49825 21.1352C7.88118 20.2417 8.31989 19.5001 8.31989 18.7201V17.1601C8.31989 16.4668 8.02252 15.9227 7.77348 15.1756C7.52444 14.4284 7.27989 13.4623 7.27989 11.9601C7.27886 11.8906 7.2639 11.822 7.23589 11.7583C7.20789 11.6947 7.16741 11.6373 7.11685 11.5896C7.06628 11.5419 7.00666 11.5048 6.94151 11.4805C6.87636 11.4562 6.80701 11.4452 6.73754 11.4482ZM12.9999 15.6001L10.3999 19.2401H12.4799L10.3999 22.8801L15.5999 18.2001H13.5199L15.5999 15.6001H12.9999Z" stroke="black" stroke-width="0.4" mask="url(#path-1-outside-1)"/>
</svg>
