<svg width="26" height="26" viewBox="0 0 26 26" fill="none" xmlns="http://www.w3.org/2000/svg">
<path d="M3.25 12.1897V12.141C3.25 11.8485 3.31717 11.5603 3.44717 11.2992L7.23342 4.75591H4.875C4.16 4.75591 3.58042 4.17633 3.58042 3.46133C3.58042 2.74633 4.16 2.16675 4.875 2.16675H8.70133C9.74675 2.16675 10.595 3.015 10.595 4.06041C10.595 4.35183 10.5278 4.63891 10.3989 4.9L6.62892 11.439H9.30042C10.0154 11.439 10.595 12.0186 10.595 12.7336V12.7888C10.595 13.5038 10.0154 14.0834 9.30042 14.0834H5.14367C4.09825 14.0834 3.25 13.2352 3.25 12.1897Z" fill="black"/>
<path d="M16.25 12.5114V12.4713C16.25 12.2287 16.3063 11.9892 16.4136 11.7726L19.5574 6.34074H17.5988C17.0051 6.34074 16.5241 5.85974 16.5241 5.26607C16.5241 4.67241 17.0051 4.19141 17.5988 4.19141H20.7751C21.6439 4.19141 22.347 4.89557 22.347 5.76332C22.347 6.00491 22.2918 6.24324 22.1845 6.45991L19.0548 11.8885H21.2734C21.8671 11.8885 22.3481 12.3695 22.3481 12.9632V13.0097C22.3481 13.6034 21.8671 14.0844 21.2734 14.0844H17.823C16.9542 14.0833 16.25 13.3792 16.25 12.5114Z" fill="black"/>
<path d="M10.8333 22.4369V22.4011C10.8333 22.1856 10.8831 21.9732 10.9795 21.7804L13.7723 16.9552H12.0325C11.5049 16.9552 11.0781 16.5273 11.0781 16.0008C11.0781 15.4732 11.506 15.0464 12.0325 15.0464H14.8546C15.6259 15.0464 16.251 15.6715 16.251 16.4428C16.251 16.6573 16.2012 16.8696 16.1058 17.0625L13.3249 21.8822H15.2955C15.8231 21.8822 16.2499 22.3101 16.2499 22.8366V22.8778C16.2499 23.4054 15.822 23.8333 15.2955 23.8333H12.2308C11.4583 23.8333 10.8333 23.2082 10.8333 22.4369Z" fill="black"/>
</svg>
