<svg width="80" height="89" viewBox="0 0 80 89" fill="none" xmlns="http://www.w3.org/2000/svg">
<path d="M45.7328 53.8202C45.4827 53.8207 45.236 53.757 45.012 53.6343C44.788 53.5115 44.5927 53.333 44.4416 53.1129L39.744 46.3166C39.6924 46.242 39.6698 46.1478 39.681 46.0548C39.6923 45.9618 39.7365 45.8775 39.804 45.8205C39.8715 45.7635 39.9567 45.7385 40.0408 45.7509C40.125 45.7634 40.2012 45.8122 40.2528 45.8868L44.9504 52.6831C45.1057 52.8995 45.3298 53.0423 45.577 53.0824C45.8242 53.1226 46.076 53.0572 46.2811 52.8995C46.4862 52.7417 46.6292 52.5035 46.681 52.2334C46.7328 51.9632 46.6895 51.6813 46.56 51.4452L46.0528 50.5786C46.0065 50.4998 45.9905 50.4039 46.0082 50.3121C46.0259 50.2202 46.0759 50.1399 46.1472 50.0887C46.2185 50.0376 46.3052 50.0199 46.3883 50.0395C46.4715 50.059 46.5441 50.1143 46.5904 50.1931L47.0976 51.0579C47.254 51.3289 47.3418 51.6413 47.3516 51.9626C47.3615 52.2838 47.2931 52.6021 47.1537 52.8842C47.0142 53.1663 46.8088 53.4018 46.5589 53.5662C46.3089 53.7305 46.0236 53.8176 45.7328 53.8185V53.8202Z" fill="#231F20"/>
<path d="M43.5199 55.4437C43.2699 55.444 43.0232 55.3803 42.7992 55.2575C42.5752 55.1348 42.3799 54.9564 42.2287 54.7363L37.3919 47.7101C37.3664 47.6732 37.3477 47.6311 37.3369 47.5862C37.3261 47.5412 37.3234 47.4944 37.329 47.4484C37.3346 47.4023 37.3483 47.3579 37.3694 47.3177C37.3905 47.2775 37.4185 47.2423 37.4519 47.2141C37.4854 47.1858 37.5235 47.1652 37.5641 47.1532C37.6047 47.1413 37.6471 47.1383 37.6888 47.1445C37.7304 47.1506 37.7706 47.1658 37.807 47.1891C37.8434 47.2124 37.8752 47.2434 37.9007 47.2804L42.7391 54.3083C42.8926 54.5299 43.1175 54.6775 43.367 54.7205C43.6164 54.7634 43.8713 54.6983 44.0785 54.5389C44.2856 54.3794 44.4292 54.1377 44.4792 53.8642C44.5293 53.5907 44.482 53.3063 44.3471 53.0704L43.6943 52.0411C43.6458 51.9642 43.6268 51.8691 43.6417 51.7767C43.6565 51.6844 43.7039 51.6023 43.7735 51.5486C43.8431 51.4949 43.9292 51.474 44.0127 51.4904C44.0963 51.5068 44.1706 51.5592 44.2191 51.6362L44.8783 52.6778C45.0363 52.9482 45.1255 53.2607 45.1366 53.5824C45.1476 53.904 45.0801 54.2231 44.9412 54.506C44.8023 54.7889 44.597 55.0252 44.3469 55.1902C44.0968 55.3552 43.8112 55.4428 43.5199 55.4437Z" fill="#231F20"/>
<path d="M32.3791 50.0004C32.1514 50.0028 31.9264 49.9467 31.7218 49.8366C31.5171 49.7264 31.3385 49.5651 31.1999 49.3655L31.1279 49.2612C31.0055 49.0877 30.9159 48.8888 30.8645 48.6763C30.8131 48.4638 30.8009 48.2421 30.8287 48.0242C30.8565 47.8064 30.9236 47.597 31.0262 47.4085C31.1287 47.2199 31.2645 47.0561 31.4255 46.9268L33.0639 45.604C33.3768 45.3674 33.7597 45.272 34.1342 45.3372C34.5088 45.4024 34.8466 45.6233 35.0786 45.9547C35.3106 46.2862 35.4193 46.7031 35.3823 47.1202C35.3454 47.5372 35.1656 47.9229 34.8799 48.1983L33.3151 49.6255C33.0518 49.8666 32.7209 49.9991 32.3791 50.0004ZM33.9407 45.993C33.761 45.9922 33.5858 46.0541 33.4399 46.1699L31.8015 47.4927C31.7108 47.5675 31.6346 47.6615 31.5773 47.7693C31.5201 47.8771 31.4829 47.9965 31.468 48.1204C31.4531 48.2443 31.4607 48.3703 31.4905 48.4909C31.5203 48.6115 31.5716 48.7243 31.6415 48.8226L31.7135 48.927C31.7831 49.0257 31.87 49.108 31.9689 49.169C32.0679 49.23 32.1768 49.2685 32.2894 49.2822C32.402 49.2958 32.516 49.2844 32.6245 49.2487C32.7331 49.2129 32.834 49.1534 32.9215 49.0737L34.4863 47.6483C34.6209 47.5257 34.7181 47.36 34.7645 47.1741C34.8108 46.9881 34.8042 46.7909 34.7454 46.6093C34.6866 46.4276 34.5785 46.2705 34.4359 46.1593C34.2933 46.048 34.1232 45.9881 33.9487 45.9877L33.9407 45.993Z" fill="#231F20"/>
<path d="M33.8191 52.188C33.592 52.1878 33.3678 52.1303 33.1638 52.02C32.9597 51.9097 32.7811 51.7494 32.6415 51.5513L32.5679 51.447C32.446 51.2734 32.3568 51.0744 32.3056 50.862C32.2545 50.6496 32.2424 50.4279 32.2702 50.2103C32.2979 49.9926 32.3649 49.7833 32.4672 49.5947C32.5694 49.4062 32.7049 49.2422 32.8655 49.1126L34.5039 47.7898C34.8169 47.5532 35.1998 47.4577 35.5743 47.5229C35.9488 47.5881 36.2867 47.8091 36.5187 48.1405C36.7507 48.472 36.8593 48.8889 36.8224 49.306C36.7854 49.723 36.6057 50.1087 36.3199 50.3841L34.7615 51.8166C34.4963 52.0584 34.1629 52.1898 33.8191 52.188ZM35.3823 48.1788C35.2027 48.1778 35.0273 48.2397 34.8815 48.3557L33.2431 49.6785C33.1512 49.7516 33.0737 49.8447 33.0154 49.952C32.957 50.0594 32.9191 50.1787 32.9039 50.3028C32.8877 50.4273 32.8944 50.554 32.9235 50.6756C32.9527 50.7971 33.0037 50.9109 33.0735 51.0102L33.1471 51.1145C33.2167 51.2135 33.3035 51.2959 33.4024 51.3571C33.5013 51.4182 33.6103 51.4568 33.723 51.4705C33.8357 51.4842 33.9497 51.4727 34.0583 51.4368C34.1669 51.4009 34.2678 51.3412 34.3551 51.2613L35.9199 49.8359C36.0537 49.7128 36.15 49.5472 36.1958 49.3615C36.2417 49.1759 36.2348 48.9791 36.1761 48.798C36.1175 48.6168 36.0099 48.4599 35.8679 48.3485C35.7259 48.2372 35.5564 48.1767 35.3823 48.1753V48.1788Z" fill="#231F20"/>
<path d="M35.3345 54.3863C35.2785 54.3863 35.2225 54.3863 35.1665 54.3863C34.9687 54.3627 34.7773 54.295 34.6038 54.1874C34.4302 54.0799 34.2782 53.9345 34.1569 53.7603L34.0833 53.6559C33.9613 53.4823 33.8721 53.2833 33.821 53.0709C33.7698 52.8585 33.7578 52.6368 33.7855 52.4192C33.8133 52.2015 33.8803 51.9922 33.9825 51.8036C34.0848 51.6151 34.2203 51.4511 34.3809 51.3215L36.0193 49.9987C36.3315 49.746 36.7206 49.6379 37.1038 49.6973C37.487 49.7567 37.8341 49.9789 38.0714 50.3168C38.3087 50.6546 38.4175 51.0814 38.3746 51.5064C38.3317 51.9315 38.1405 52.3213 37.8417 52.5931L36.2769 54.0202C36.0111 54.2602 35.6777 54.3897 35.3345 54.3863ZM36.8977 50.3789C36.7181 50.3779 36.5427 50.4398 36.3969 50.5558L34.7585 51.8786C34.6669 51.9524 34.5897 52.0458 34.5314 52.1532C34.4731 52.2606 34.4349 52.3798 34.4191 52.5039C34.4033 52.6279 34.4102 52.7542 34.4393 52.8752C34.4685 52.9963 34.5194 53.1096 34.5889 53.2085L34.6625 53.3111C34.7317 53.4098 34.8183 53.492 34.917 53.5527C35.0157 53.6135 35.1245 53.6516 35.2369 53.6648C35.3508 53.6794 35.4662 53.6685 35.5762 53.6326C35.6862 53.5968 35.7884 53.5367 35.8769 53.4561L37.4417 52.0307C37.5755 51.9075 37.6718 51.7419 37.7176 51.5563C37.7634 51.3706 37.7566 51.1739 37.6979 50.9927C37.6393 50.8116 37.5317 50.6547 37.3897 50.5433C37.2477 50.4319 37.0782 50.3715 36.9041 50.3701L36.8977 50.3789Z" fill="#231F20"/>
<path d="M36.7744 56.5721C36.72 56.5721 36.664 56.5721 36.6144 56.5632C36.4164 56.5394 36.2248 56.4717 36.051 56.3642C35.8773 56.2566 35.725 56.1114 35.6032 55.9372L35.5296 55.8328C35.4076 55.6592 35.3184 55.4603 35.2673 55.2478C35.2161 55.0354 35.2041 54.8138 35.2318 54.5961C35.2596 54.3784 35.3266 54.1691 35.4288 53.9806C35.5311 53.792 35.6666 53.6281 35.8272 53.4985L37.4592 52.1703C37.7714 51.9177 38.1605 51.8096 38.5437 51.869C38.9269 51.9284 39.274 52.1506 39.5113 52.4884C39.7486 52.8262 39.8574 53.253 39.8145 53.6781C39.7716 54.1031 39.5804 54.493 39.2816 54.7647L37.7168 56.1919C37.4528 56.4369 37.1192 56.5715 36.7744 56.5721ZM38.3376 52.5647C38.158 52.5639 37.9827 52.6258 37.8368 52.7415L36.1984 54.0644C36.1068 54.1382 36.0296 54.2315 35.9713 54.339C35.913 54.4464 35.8748 54.5656 35.859 54.6897C35.8432 54.8137 35.8501 54.94 35.8792 55.061C35.9084 55.182 35.9593 55.2954 36.0288 55.3943L36.1024 55.4968C36.1718 55.5959 36.2585 55.6785 36.3574 55.7398C36.4563 55.8012 36.5653 55.8399 36.6779 55.8537C36.7906 55.8676 36.9046 55.8563 37.0133 55.8205C37.1219 55.7847 37.223 55.7252 37.3104 55.6454L38.8752 54.22C39.009 54.0968 39.1053 53.9312 39.1511 53.7456C39.1969 53.5599 39.19 53.3632 39.1314 53.182C39.0727 53.0009 38.9651 52.844 38.8232 52.7326C38.6812 52.6212 38.5117 52.5608 38.3376 52.5594V52.5647Z" fill="#231F20"/>
<path d="M34.4785 39.2816C34.1407 39.2804 33.8134 39.1519 33.5506 38.9172C33.2879 38.6825 33.1055 38.3557 33.0337 37.9908C32.9618 37.626 33.0048 37.2449 33.1556 36.9108C33.3063 36.5766 33.5557 36.3093 33.8625 36.1531L39.5521 33.274C40.4694 32.8126 41.471 32.5926 42.4782 32.6313C43.4854 32.67 44.4708 32.9662 45.3569 33.4968L50.3169 36.4856H63.6529C63.7378 36.4856 63.8192 36.5228 63.8792 36.5892C63.9392 36.6555 63.9729 36.7455 63.9729 36.8393C63.9729 36.9331 63.9392 37.023 63.8792 37.0894C63.8192 37.1557 63.7378 37.193 63.6529 37.193H50.2401C50.1843 37.1935 50.1292 37.1783 50.0801 37.1488L45.0513 34.1193C44.2531 33.6406 43.3652 33.3732 42.4576 33.3382C41.55 33.3032 40.6474 33.5016 39.8209 33.9177L34.1313 36.7951C33.9403 36.8868 33.7868 37.0534 33.7003 37.2627C33.6137 37.4721 33.6004 37.7095 33.6628 37.9291C33.7252 38.1487 33.8589 38.3351 34.0382 38.4522C34.2174 38.5693 34.4296 38.609 34.6337 38.5636L41.3441 37.1718C41.3858 37.162 41.4289 37.1616 41.4707 37.1705C41.5125 37.1794 41.5523 37.1975 41.5878 37.2236C41.6232 37.2498 41.6536 37.2835 41.6771 37.3228C41.7006 37.362 41.7167 37.4061 41.7246 37.4524C41.7325 37.4987 41.732 37.5462 41.723 37.5923C41.714 37.6383 41.6968 37.6819 41.6724 37.7205C41.648 37.7591 41.6169 37.7919 41.5808 37.817C41.5448 37.8422 41.5046 37.8591 41.4625 37.8668L34.7489 39.2603C34.6596 39.2769 34.5691 39.284 34.4785 39.2816Z" fill="#231F20"/>
<path d="M56.4959 48.5403H48.4047C48.3198 48.5403 48.2385 48.503 48.1784 48.4367C48.1184 48.3703 48.0847 48.2802 48.0847 48.1863C48.0847 48.0924 48.1184 48.0024 48.1784 47.936C48.2385 47.8696 48.3198 47.8323 48.4047 47.8323H56.4959C56.5808 47.8323 56.6622 47.8696 56.7222 47.936C56.7822 48.0024 56.8159 48.0924 56.8159 48.1863C56.8159 48.2802 56.7822 48.3703 56.7222 48.4367C56.6622 48.503 56.5808 48.5403 56.4959 48.5403Z" fill="#231F20"/>
<path d="M46.88 43.0849C46.2981 43.0844 45.7194 42.9877 45.1632 42.7981C45.1219 42.7855 45.0833 42.7639 45.0497 42.7345C45.0161 42.7051 44.9882 42.6685 44.9676 42.6269C44.947 42.5853 44.9342 42.5396 44.9298 42.4924C44.9255 42.4453 44.9298 42.3976 44.9425 42.3523C44.9551 42.307 44.9759 42.265 45.0035 42.2287C45.0311 42.1925 45.065 42.1627 45.1032 42.1412C45.1414 42.1197 45.1831 42.107 45.2258 42.1036C45.2686 42.1003 45.3115 42.1066 45.352 42.1219C46.3343 42.4511 47.3823 42.4548 48.3665 42.1326C48.4479 42.1056 48.5358 42.1155 48.6106 42.1601C48.6855 42.2048 48.7413 42.2805 48.7657 42.3706C48.7901 42.4608 48.7811 42.558 48.7407 42.6408C48.7004 42.7236 48.6319 42.7853 48.5505 42.8123C48.0083 42.991 47.4458 43.0828 46.88 43.0849Z" fill="#231F20"/>
<path d="M40.496 68.0867C40.4526 68.0868 40.4097 68.0771 40.3698 68.0583C40.3299 68.0394 40.2939 68.0118 40.264 67.9771L19.304 43.526C18.5524 42.6724 17.896 41.7225 17.3488 40.6964C15.9968 38.0826 15.4416 35.0992 15.784 32.2961C16.0305 30.2187 16.7073 28.2322 17.7619 26.4912C18.8164 24.7502 20.2202 23.3016 21.864 22.2582C27.8128 18.4612 34.4512 20.4172 38.7776 27.2382L39.9888 28.9448L41.2 27.2418C45.296 20.4172 52.0928 18.4153 58.1152 22.2582C60.2282 23.6025 61.9349 25.6067 63.0211 28.0192C64.1073 30.4318 64.5247 33.1452 64.2208 35.8189C63.9997 37.6786 63.4155 39.4629 62.5088 41.0483C62.0799 41.7972 61.5899 42.5011 61.0448 43.1511L40.7328 67.9753C40.7032 68.0115 40.6672 68.0406 40.627 68.0607C40.5868 68.0808 40.5433 68.0914 40.4992 68.092L40.496 68.0867ZM28.016 21.0662C25.1794 21.1172 22.4523 22.285 20.325 24.3597C18.1978 26.4345 16.81 29.2799 16.4112 32.3845C16.0912 35.0373 16.616 37.8668 17.8976 40.3427C18.4199 41.3197 19.0462 42.2239 19.7632 43.0361L40.4896 67.2184L60.5696 42.6807C61.0903 42.0609 61.5584 41.3896 61.968 40.6752C62.8269 39.1742 63.38 37.4845 63.5888 35.7234C63.8765 33.1878 63.4804 30.6147 62.4503 28.3269C61.4202 26.0391 59.8019 24.1383 57.7984 22.863C52.0832 19.2164 45.6256 21.1352 41.7296 27.6379C41.7248 27.646 41.7194 27.6537 41.7136 27.6609L40.2448 29.73C40.2135 29.7701 40.1749 29.8022 40.1314 29.8242C40.0879 29.8462 40.0406 29.8576 39.9928 29.8576C39.9449 29.8576 39.8977 29.8462 39.8542 29.8242C39.8107 29.8022 39.772 29.7701 39.7408 29.73L38.272 27.6609L38.2608 27.645C35.5296 23.344 31.84 21.0715 28.0176 21.0715L28.016 21.0662Z" fill="#231F20"/>
<path d="M16.4255 36.4856C16.3406 36.4856 16.2592 36.5229 16.1992 36.5893C16.1392 36.6557 16.1055 36.7457 16.1055 36.8396C16.1055 36.9335 16.1392 37.0236 16.1992 37.09C16.2592 37.1564 16.3406 37.1937 16.4255 37.1937H33.6383L33.4335 36.4856H16.4255Z" fill="black"/>
<path d="M49.2559 49.0968L44.3823 40.3976C43.6324 39.0668 42.5567 37.998 41.2799 37.3151L41.0127 37.9571L41.2799 37.3151L41.1391 37.2444L40.8191 37.8598C42.0659 38.4758 43.1178 39.4895 43.8399 40.7707L48.7151 49.4699C48.8574 49.7238 48.9058 50.0286 48.8502 50.3209C48.7946 50.6132 48.6393 50.8706 48.4165 51.0397C48.1938 51.2087 47.9207 51.2765 47.6539 51.2289C47.3871 51.1813 47.1472 51.0219 46.9839 50.7839L42.6495 44.4085C42.6255 44.3681 42.5942 44.3336 42.5576 44.3071C42.5211 44.2806 42.48 44.2627 42.4369 44.2544C42.3938 44.2461 42.3497 44.2477 42.3072 44.259C42.2646 44.2703 42.2247 44.2912 42.1898 44.3202C42.1548 44.3493 42.1256 44.386 42.104 44.428C42.0824 44.47 42.0688 44.5164 42.064 44.5645C42.0593 44.6125 42.0635 44.6611 42.0764 44.7073C42.0893 44.7535 42.1106 44.7962 42.1391 44.833L46.4719 51.2101C46.7345 51.5931 47.1205 51.8495 47.5497 51.9263C47.9788 52.003 48.4183 51.8941 48.7767 51.6221C49.1352 51.3502 49.3851 50.9361 49.4746 50.4659C49.5641 49.9956 49.4864 49.5053 49.2575 49.0968H49.2559Z" fill="black"/>
<path d="M23.6096 47.6907C23.5247 47.6907 23.4433 47.728 23.3833 47.7944C23.3233 47.8608 23.2896 47.9508 23.2896 48.0447C23.2896 48.1386 23.3233 48.2287 23.3833 48.295C23.4433 48.3614 23.5247 48.3987 23.6096 48.3987H31.1904L31.0544 47.6907H23.6096Z" fill="black"/>
<path d="M41.3583 52.4657L40.6399 51.2649C40.6181 51.2233 40.5888 51.1871 40.5539 51.1584C40.519 51.1297 40.4791 51.1092 40.4368 51.0981C40.3945 51.0871 40.3505 51.0856 40.3077 51.094C40.2648 51.1023 40.224 51.1202 40.1876 51.1465C40.1512 51.1729 40.1201 51.2072 40.0961 51.2473C40.0721 51.2874 40.0558 51.3325 40.0481 51.3799C40.0404 51.4272 40.0415 51.4757 40.0514 51.5226C40.0613 51.5694 40.0797 51.6135 40.1055 51.6522L40.8143 52.8513C40.9311 53.0679 40.976 53.3227 40.9411 53.5719C40.9063 53.8211 40.794 54.0491 40.6235 54.2166C40.4529 54.3842 40.2349 54.4808 40.0069 54.4898C39.7789 54.4988 39.5552 54.4197 39.3743 54.266L38.9695 54.8231C39.2688 55.0916 39.6449 55.2336 40.0303 55.2234C40.4158 55.2133 40.7853 55.0518 41.0728 54.7679C41.3603 54.484 41.5469 54.0962 41.5992 53.674C41.6516 53.2518 41.5661 52.8229 41.3583 52.464V52.4657Z" fill="black"/>
</svg>
