<svg width="80" height="89" viewBox="0 0 80 89" fill="none" xmlns="http://www.w3.org/2000/svg">
<path d="M39.5521 33.955H33.4721C33.3227 33.955 33.1748 33.9225 33.0367 33.8593C32.8987 33.7961 32.7733 33.7035 32.6677 33.5867C32.562 33.4699 32.4782 33.3313 32.4211 33.1788C32.3639 33.0262 32.3345 32.8627 32.3345 32.6976C32.3345 32.5325 32.3639 32.369 32.4211 32.2164C32.4782 32.0638 32.562 31.9252 32.6677 31.8085C32.7733 31.6917 32.8987 31.5991 33.0367 31.5359C33.1748 31.4727 33.3227 31.4402 33.4721 31.4402H39.5521C39.7015 31.4402 39.8494 31.4727 39.9874 31.5359C40.1254 31.5991 40.2508 31.6917 40.3565 31.8085C40.4621 31.9252 40.5459 32.0638 40.6031 32.2164C40.6603 32.369 40.6897 32.5325 40.6897 32.6976C40.6897 32.8627 40.6603 33.0262 40.6031 33.1788C40.5459 33.3313 40.4621 33.4699 40.3565 33.5867C40.2508 33.7035 40.1254 33.7961 39.9874 33.8593C39.8494 33.9225 39.7015 33.955 39.5521 33.955ZM33.4721 32.1476C33.3401 32.1476 33.2135 32.2055 33.1202 32.3087C33.0269 32.4118 32.9745 32.5517 32.9745 32.6976C32.9745 32.8435 33.0269 32.9833 33.1202 33.0865C33.2135 33.1896 33.3401 33.2476 33.4721 33.2476H39.5521C39.6841 33.2476 39.8106 33.1896 39.9039 33.0865C39.9973 32.9833 40.0497 32.8435 40.0497 32.6976C40.0497 32.5517 39.9973 32.4118 39.9039 32.3087C39.8106 32.2055 39.6841 32.1476 39.5521 32.1476H33.4721Z" fill="#231F20"/>
<path d="M42.3167 51.5716H30.7663C30.6814 51.5716 30.6 51.5343 30.54 51.4679C30.48 51.4015 30.4463 51.3115 30.4463 51.2176C30.4463 51.1237 30.48 51.0336 30.54 50.9672C30.6 50.9008 30.6814 50.8635 30.7663 50.8635H42.3167C42.4016 50.8635 42.4829 50.9008 42.543 50.9672C42.603 51.0336 42.6367 51.1237 42.6367 51.2176C42.6367 51.3115 42.603 51.4015 42.543 51.4679C42.4829 51.5343 42.4016 51.5716 42.3167 51.5716Z" fill="#231F20"/>
<path d="M32.384 30.0201C32.0007 30.0204 31.626 29.8951 31.3071 29.66C30.9883 29.4249 30.7397 29.0906 30.5928 28.6992C30.4459 28.3079 30.4073 27.8773 30.4819 27.4617C30.5564 27.0462 30.7409 26.6644 31.0118 26.3647C31.2827 26.065 31.6279 25.8609 32.0038 25.7781C32.3797 25.6953 32.7694 25.7376 33.1235 25.8997C33.4777 26.0617 33.7804 26.3362 33.9934 26.6884C34.2063 27.0407 34.32 27.4548 34.32 27.8785C34.3196 28.446 34.1155 28.9902 33.7526 29.3917C33.3897 29.7932 32.8975 30.0192 32.384 30.0201ZM32.384 26.4442C32.1273 26.4439 31.8763 26.5277 31.6627 26.6851C31.4491 26.8424 31.2825 27.0663 31.1841 27.3284C31.0856 27.5904 31.0597 27.8788 31.1096 28.1572C31.1594 28.4355 31.2829 28.6912 31.4643 28.892C31.6457 29.0927 31.8769 29.2295 32.1287 29.285C32.3804 29.3405 32.6414 29.3122 32.8786 29.2037C33.1158 29.0952 33.3186 28.9114 33.4612 28.6755C33.6039 28.4396 33.68 28.1622 33.68 27.8785C33.6796 27.4985 33.543 27.1343 33.3001 26.8654C33.0572 26.5966 32.7278 26.4451 32.384 26.4442Z" fill="#231F20"/>
<path d="M37.2273 26.0747C36.9741 26.0747 36.7266 25.9917 36.5161 25.8363C36.3056 25.6808 36.1416 25.4598 36.0447 25.2013C35.9478 24.9428 35.9225 24.6583 35.9719 24.3839C36.0213 24.1095 36.1432 23.8574 36.3222 23.6595C36.5012 23.4616 36.7293 23.3269 36.9776 23.2723C37.2258 23.2177 37.4832 23.2457 37.7171 23.3528C37.951 23.4599 38.1509 23.6412 38.2915 23.8739C38.4322 24.1066 38.5073 24.3801 38.5073 24.6599C38.5073 25.0351 38.3724 25.395 38.1324 25.6603C37.8923 25.9256 37.5667 26.0747 37.2273 26.0747ZM37.2273 23.9437C37.1007 23.9437 36.9769 23.9852 36.8717 24.0629C36.7665 24.1406 36.6844 24.2511 36.636 24.3804C36.5875 24.5096 36.5749 24.6519 36.5996 24.7891C36.6243 24.9263 36.6852 25.0523 36.7747 25.1513C36.8642 25.2502 36.9783 25.3176 37.1024 25.3449C37.2266 25.3722 37.3552 25.3582 37.4722 25.3046C37.5891 25.2511 37.6891 25.1604 37.7594 25.0441C37.8297 24.9277 37.8673 24.791 37.8673 24.6511C37.8673 24.4635 37.7998 24.2835 37.6798 24.1509C37.5598 24.0182 37.397 23.9437 37.2273 23.9437Z" fill="#231F20"/>
<path d="M41.104 22.971C40.6138 22.9713 40.1344 22.8109 39.7267 22.5101C39.3189 22.2094 39.001 21.7816 38.8131 21.2811C38.6253 20.7806 38.576 20.2297 38.6715 19.6982C38.7669 19.1667 39.0028 18.6784 39.3494 18.2952C39.6959 17.9119 40.1375 17.6508 40.6183 17.545C41.0991 17.4391 41.5975 17.4933 42.0505 17.7005C42.5034 17.9078 42.8906 18.2589 43.163 18.7095C43.4354 19.16 43.5808 19.6897 43.5808 20.2316C43.58 20.9575 43.3188 21.6535 42.8545 22.167C42.3903 22.6804 41.7608 22.9696 41.104 22.971ZM41.104 18.196C40.7403 18.1957 40.3846 18.3146 40.0821 18.5378C39.7795 18.7609 39.5436 19.0782 39.4043 19.4496C39.2649 19.821 39.2284 20.2297 39.2993 20.624C39.3702 21.0184 39.5453 21.3806 39.8025 21.6649C40.0597 21.9492 40.3874 22.1427 40.7442 22.2211C41.1009 22.2994 41.4707 22.259 41.8067 22.105C42.1427 21.951 42.4298 21.6903 42.6317 21.3558C42.8335 21.0214 42.9411 20.6283 42.9408 20.2263C42.9387 19.689 42.7443 19.1745 42.4002 18.7951C42.0561 18.4157 41.5901 18.2023 41.104 18.2014V18.196Z" fill="#231F20"/>
<path d="M42.3505 28.7838C41.9951 28.7838 41.6477 28.6673 41.3523 28.4491C41.0568 28.2309 40.8265 27.9207 40.6905 27.5578C40.5545 27.1949 40.5189 26.7956 40.5882 26.4103C40.6576 26.0251 40.8287 25.6712 41.08 25.3935C41.3313 25.1157 41.6514 24.9266 42 24.8499C42.3485 24.7733 42.7098 24.8126 43.0381 24.9629C43.3664 25.1133 43.6471 25.3678 43.8445 25.6944C44.0419 26.021 44.1473 26.405 44.1473 26.7978C44.1469 27.3244 43.9574 27.8292 43.6206 28.2016C43.2837 28.5739 42.8269 28.7833 42.3505 28.7838ZM42.3505 25.5192C42.1217 25.5192 41.8981 25.5942 41.7078 25.7346C41.5176 25.8751 41.3693 26.0748 41.2818 26.3085C41.1942 26.5421 41.1713 26.7992 41.2159 27.0472C41.2606 27.2953 41.3707 27.5231 41.5325 27.7019C41.6943 27.8807 41.9004 28.0025 42.1248 28.0518C42.3492 28.1012 42.5818 28.0758 42.7932 27.9791C43.0046 27.8823 43.1852 27.7184 43.3124 27.5081C43.4395 27.2979 43.5073 27.0507 43.5073 26.7978C43.5073 26.4587 43.3854 26.1334 43.1685 25.8937C42.9515 25.6539 42.6573 25.5192 42.3505 25.5192Z" fill="#231F20"/>
<path d="M36.4528 18.5691C36.2359 18.5694 36.0238 18.4986 35.8433 18.3656C35.6628 18.2327 35.5221 18.0435 35.439 17.8221C35.3558 17.6006 35.334 17.3569 35.3762 17.1218C35.4184 16.8866 35.5229 16.6706 35.6762 16.5011C35.8296 16.3315 36.025 16.2161 36.2378 16.1694C36.4505 16.1227 36.671 16.1469 36.8714 16.2388C37.0717 16.3307 37.2429 16.4862 37.3632 16.6857C37.4835 16.8852 37.5475 17.1197 37.5472 17.3594C37.5468 17.6801 37.4314 17.9875 37.2262 18.2143C37.0211 18.441 36.7429 18.5686 36.4528 18.5691ZM36.4528 16.8554C36.3626 16.8551 36.2742 16.8843 36.199 16.9395C36.1239 16.9947 36.0652 17.0732 36.0304 17.1653C35.9956 17.2574 35.9864 17.3588 36.0038 17.4567C36.0212 17.5545 36.0645 17.6445 36.1282 17.7152C36.1919 17.7859 36.2732 17.834 36.3617 17.8536C36.4502 17.8732 36.5419 17.8633 36.6254 17.8252C36.7088 17.7871 36.7801 17.7225 36.8303 17.6396C36.8804 17.5567 36.9072 17.4592 36.9072 17.3594C36.9064 17.2265 36.8582 17.0993 36.7732 17.0053C36.6882 16.9113 36.5731 16.8581 36.4528 16.8572V16.8554Z" fill="#231F20"/>
<path d="M35.2576 37.8853H33.6576C33.5728 37.8853 33.4914 37.848 33.4314 37.7816C33.3714 37.7152 33.3376 37.6252 33.3376 37.5313C33.3376 37.4374 33.3714 37.3473 33.4314 37.2809C33.4914 37.2145 33.5728 37.1772 33.6576 37.1772H35.2576C35.3425 37.1772 35.4239 37.2145 35.4839 37.2809C35.5439 37.3473 35.5776 37.4374 35.5776 37.5313C35.5776 37.6252 35.5439 37.7152 35.4839 37.7816C35.4239 37.848 35.3425 37.8853 35.2576 37.8853Z" fill="#231F20"/>
<path d="M35.2576 44.7293H33.6576C33.5728 44.7293 33.4914 44.692 33.4314 44.6256C33.3714 44.5592 33.3376 44.4692 33.3376 44.3753C33.3376 44.2814 33.3714 44.1913 33.4314 44.1249C33.4914 44.0585 33.5728 44.0212 33.6576 44.0212H35.2576C35.3425 44.0212 35.4239 44.0585 35.4839 44.1249C35.5439 44.1913 35.5776 44.2814 35.5776 44.3753C35.5776 44.4692 35.5439 44.5592 35.4839 44.6256C35.4239 44.692 35.3425 44.7293 35.2576 44.7293Z" fill="#231F20"/>
<path d="M35.2576 42.4444H33.6576C33.5728 42.4444 33.4914 42.4071 33.4314 42.3407C33.3714 42.2743 33.3376 42.1843 33.3376 42.0904C33.3376 41.9965 33.3714 41.9064 33.4314 41.84C33.4914 41.7736 33.5728 41.7363 33.6576 41.7363H35.2576C35.3425 41.7363 35.4239 41.7736 35.4839 41.84C35.5439 41.9064 35.5776 41.9965 35.5776 42.0904C35.5776 42.1843 35.5439 42.2743 35.4839 42.3407C35.4239 42.4071 35.3425 42.4444 35.2576 42.4444Z" fill="#231F20"/>
<path d="M35.2576 40.1666H33.6576C33.5728 40.1666 33.4914 40.1293 33.4314 40.0629C33.3714 39.9965 33.3376 39.9064 33.3376 39.8125C33.3376 39.7186 33.3714 39.6286 33.4314 39.5622C33.4914 39.4958 33.5728 39.4585 33.6576 39.4585H35.2576C35.3425 39.4585 35.4239 39.4958 35.4839 39.5622C35.5439 39.6286 35.5776 39.7186 35.5776 39.8125C35.5776 39.9064 35.5439 39.9965 35.4839 40.0629C35.4239 40.1293 35.3425 40.1666 35.2576 40.1666Z" fill="#231F20"/>
<path d="M49.1584 72.2746C47.742 72.2746 46.3574 71.8103 45.1797 70.9406C44.0019 70.0708 43.084 68.8345 42.542 67.3881C41.9999 65.9417 41.8581 64.3501 42.1344 62.8146C42.4108 61.2791 43.0928 59.8686 44.0944 58.7616C45.096 57.6545 46.3721 56.9006 47.7613 56.5952C49.1505 56.2898 50.5904 56.4465 51.899 57.0457C53.2077 57.6448 54.3262 58.6594 55.1131 59.9611C55.9 61.2628 56.32 62.7933 56.32 64.3589C56.3179 66.4575 55.5627 68.4696 54.2201 69.9535C52.8775 71.4375 51.0571 72.2723 49.1584 72.2746ZM49.1584 57.1505C47.8686 57.1505 46.6077 57.5733 45.5352 58.3653C44.4628 59.1574 43.6269 60.2832 43.1333 61.6003C42.6397 62.9175 42.5105 64.3669 42.7621 65.7651C43.0138 67.1634 43.6349 68.4478 44.547 69.4559C45.459 70.464 46.6211 71.1506 47.8861 71.4287C49.1512 71.7068 50.4625 71.5641 51.6541 71.0185C52.8458 70.4729 53.8643 69.549 54.5809 68.3636C55.2975 67.1782 55.68 65.7845 55.68 64.3589C55.6783 62.4477 54.9907 60.6153 53.768 59.2639C52.5454 57.9124 50.8875 57.1524 49.1584 57.1505Z" fill="#231F20"/>
<path d="M47.9824 67.71H47.9728C47.9241 67.7087 47.8763 67.6951 47.833 67.6703C47.7898 67.6455 47.7522 67.6101 47.7232 67.5668L45.7696 64.624C45.7448 64.5865 45.727 64.544 45.717 64.4988C45.7071 64.4537 45.7054 64.4068 45.7118 64.3609C45.7183 64.315 45.7329 64.271 45.7547 64.2313C45.7766 64.1916 45.8053 64.1571 45.8392 64.1297C45.8732 64.1023 45.9117 64.0826 45.9525 64.0716C45.9933 64.0606 46.0357 64.0587 46.0773 64.0658C46.1188 64.0729 46.1586 64.0891 46.1945 64.1132C46.2304 64.1374 46.2616 64.1691 46.2864 64.2066L48 66.7798L52.0448 61.3152C52.0985 61.2425 52.1761 61.1963 52.2606 61.1869C52.3451 61.1774 52.4295 61.2054 52.4952 61.2648C52.561 61.3241 52.6028 61.4099 52.6113 61.5032C52.6199 61.5966 52.5945 61.6899 52.5408 61.7626L48.2336 67.5809C48.2032 67.6219 48.1648 67.6547 48.1213 67.6771C48.0778 67.6994 48.0304 67.7107 47.9824 67.71Z" fill="#231F20"/>
<path d="M27.3152 66.4032C26.7665 66.4042 26.228 66.2385 25.7587 65.9243C25.2893 65.6102 24.907 65.1595 24.6536 64.6215C24.4001 64.0835 24.2853 63.4789 24.3216 62.8737C24.3578 62.2685 24.5438 61.686 24.8592 61.1896L33.928 46.8189C33.9654 46.7598 33.9855 46.6894 33.9856 46.6173V33.955H39.1568V46.6315C39.1562 46.7037 39.1764 46.7743 39.2144 46.8331L45.9936 57.5766L46.7072 57.4705L39.7968 46.5112V33.6013C39.7968 33.5074 39.7631 33.4175 39.7031 33.3512C39.6431 33.2848 39.5617 33.2476 39.4768 33.2476H33.6656C33.5808 33.2476 33.4994 33.2848 33.4394 33.3512C33.3794 33.4175 33.3456 33.5074 33.3456 33.6013V46.5112L24.3344 60.79C23.9538 61.3923 23.7299 62.0985 23.687 62.8316C23.6441 63.5648 23.784 64.297 24.0913 64.9484C24.3986 65.5999 24.8617 66.1458 25.4301 66.5267C25.9985 66.9076 26.6505 67.1089 27.3152 67.1088H42.9472L42.4576 66.4014L27.3152 66.4032Z" fill="black"/>
</svg>
