<svg width="80" height="80" viewBox="0 0 80 80" fill="none" xmlns="http://www.w3.org/2000/svg">
<path d="M22.9408 64.9088C22.856 64.9088 22.7746 64.8751 22.7146 64.8151C22.6545 64.7551 22.6208 64.6737 22.6208 64.5888V56.1168C22.6039 55.9897 22.5799 55.8636 22.5488 55.7392C22.32 54.8352 21.5328 54.12 20.4912 53.8752C16.6304 52.9616 15.5728 50.3952 15.4928 50.1952L11.8272 41.7424C11.654 41.3402 11.636 40.888 11.7768 40.4734C11.9176 40.0587 12.2072 39.7109 12.5895 39.4974C12.9719 39.2838 13.4198 39.2196 13.8467 39.3172C14.2736 39.4148 14.6492 39.6672 14.9008 40.0256L19.2592 46.2656C20.2192 46.2144 24.6592 46.0384 26.5344 46.9888C27.2829 47.2828 27.8953 47.8445 28.2528 48.5648C28.2731 48.6031 28.2854 48.6452 28.2889 48.6884C28.2924 48.7316 28.2871 48.7751 28.2733 48.8162C28.2595 48.8573 28.2375 48.8952 28.2086 48.9275C28.1798 48.9599 28.1446 48.986 28.1053 49.0044C28.066 49.0227 28.0234 49.0329 27.9801 49.0343C27.9367 49.0356 27.8936 49.0282 27.8532 49.0124C27.8128 48.9965 27.7761 48.9727 27.7452 48.9422C27.7144 48.9118 27.69 48.8754 27.6736 48.8352C27.3855 48.2644 26.8974 47.8196 26.3024 47.5856L26.2592 47.568C24.3632 46.5904 19.1728 46.9104 19.12 46.9136C19.0651 46.9172 19.0102 46.9066 18.9606 46.8828C18.911 46.8589 18.8684 46.8227 18.8368 46.7776L14.376 40.3776C14.2153 40.1492 13.9756 39.9885 13.7032 39.9265C13.4309 39.8645 13.1452 39.9055 12.9014 40.0418C12.6576 40.178 12.4729 40.3997 12.3829 40.6642C12.293 40.9286 12.3042 41.217 12.4144 41.4736L16.0832 49.9264C16.0839 49.9323 16.0839 49.9382 16.0832 49.944C16.1216 50.0416 17.0432 52.3904 20.632 53.2368C21.912 53.5376 22.872 54.432 23.1632 55.568C23.2011 55.7236 23.2305 55.8812 23.2512 56.04C23.252 56.0533 23.252 56.0667 23.2512 56.08V64.5744C23.2532 64.6168 23.2466 64.6592 23.232 64.6991C23.2174 64.739 23.195 64.7755 23.1661 64.8066C23.1372 64.8378 23.1024 64.8628 23.0637 64.8804C23.0251 64.8979 22.9833 64.9076 22.9408 64.9088Z" fill="#231F20"/>
<path d="M19.7137 43.1999C19.6288 43.1999 19.5474 43.1662 19.4874 43.1062C19.4274 43.0462 19.3937 42.9648 19.3937 42.8799L19.3329 29.5759C19.3276 29.2776 19.2066 28.993 18.9955 28.7821C18.7843 28.5713 18.4995 28.4508 18.2011 28.446C17.9027 28.4413 17.6142 28.5526 17.3964 28.7566C17.1786 28.9605 17.0485 29.2411 17.0337 29.5391L16.4801 42.2239C16.4783 42.266 16.4681 42.3072 16.4503 42.3453C16.4325 42.3835 16.4074 42.4177 16.3763 42.4461C16.3452 42.4745 16.3089 42.4964 16.2693 42.5108C16.2297 42.5251 16.1877 42.5315 16.1457 42.5295C16.0611 42.5258 15.9814 42.4887 15.9241 42.4263C15.8669 42.3639 15.8366 42.2813 15.8401 42.1967L16.3889 29.5167C16.4083 29.0499 16.6095 28.6092 16.9494 28.2886C17.2893 27.9681 17.741 27.7931 18.2082 27.801C18.6753 27.809 19.1209 27.9992 19.4497 28.3311C19.7785 28.663 19.9645 29.1103 19.9681 29.5775L20.0289 42.8847C20.0289 42.9696 19.9952 43.051 19.9352 43.111C19.8752 43.171 19.7938 43.2047 19.7089 43.2047L19.7137 43.1999Z" fill="#231F20"/>
<path d="M22.88 42.5839C22.7951 42.5839 22.7137 42.5502 22.6537 42.4902C22.5937 42.4302 22.56 42.3488 22.56 42.2639L22.5152 28.7295C22.5099 28.4312 22.3889 28.1466 22.1778 27.9358C21.9666 27.7249 21.6818 27.6044 21.3834 27.5996C21.085 27.5949 20.7965 27.7062 20.5787 27.9102C20.3609 28.1141 20.2308 28.3947 20.216 28.6927L20.0096 31.6799C20.0039 31.7646 19.9647 31.8435 19.9008 31.8993C19.8369 31.9551 19.7535 31.9833 19.6688 31.9775C19.6268 31.9749 19.5856 31.964 19.5478 31.9454C19.51 31.9268 19.4762 31.901 19.4484 31.8693C19.4206 31.8376 19.3993 31.8008 19.3858 31.7609C19.3723 31.721 19.3668 31.6788 19.3696 31.6367L19.5712 28.6495C19.5975 28.1871 19.8021 27.7529 20.1418 27.4381C20.4815 27.1233 20.93 26.9524 21.3931 26.9613C21.8562 26.9702 22.2978 27.1582 22.6252 27.4858C22.9526 27.8135 23.1403 28.2553 23.1488 28.7183L23.1936 42.2575C23.1936 42.3424 23.1599 42.4238 23.0999 42.4838C23.0399 42.5438 22.9585 42.5775 22.8736 42.5775L22.88 42.5839Z" fill="#231F20"/>
<path d="M33.9616 64.72C33.8768 64.72 33.7954 64.6863 33.7354 64.6263C33.6754 64.5663 33.6416 64.4849 33.6416 64.4V55.8768C33.6413 55.8207 33.6556 55.7656 33.6832 55.7168C34.6304 54.0192 34.7392 51.864 33.9728 49.9472C33.2512 48.144 31.8384 47.0944 30.344 45.9824C30.0576 45.7712 29.7632 45.552 29.472 45.3264C29.1808 45.1008 28.9584 44.9344 28.7312 44.7648C27.5952 43.9104 26.8432 43.3456 25.9072 41.8384L25.8928 41.8128C25.8592 41.7456 25.8592 41.7456 25.832 35.8272L25.8048 29.9824C25.8048 29.2976 25.4384 28.6096 24.6192 28.6096C24.2557 28.61 23.9072 28.7546 23.6501 29.0117C23.3931 29.2687 23.2485 29.6173 23.248 29.9808L23.1712 35.52C23.1712 35.6049 23.1375 35.6863 23.0775 35.7463C23.0175 35.8063 22.9361 35.84 22.8512 35.84C22.7664 35.84 22.685 35.8063 22.625 35.7463C22.565 35.6863 22.5312 35.6049 22.5312 35.52L22.608 29.9936C22.6093 29.4609 22.8217 28.9504 23.1987 28.574C23.5757 28.1976 24.0865 27.986 24.6192 27.9856C25.6768 27.9856 26.4448 28.832 26.4448 29.9968C26.4448 29.9968 26.4944 40.5056 26.4992 41.592C27.3488 42.9408 28.0192 43.4448 29.1168 44.2688C29.3456 44.4416 29.5968 44.6272 29.864 44.8368C30.1312 45.0464 30.4384 45.2736 30.7248 45.4848C32.2944 46.6528 33.7776 47.7536 34.5648 49.7264C35.392 51.792 35.2832 54.1184 34.28 55.9664V64.4C34.28 64.4846 34.2466 64.5657 34.1869 64.6257C34.1272 64.6857 34.0462 64.7196 33.9616 64.72Z" fill="#231F20"/>
<path d="M28.9135 44.6129C28.8287 44.6129 28.7473 44.5792 28.6873 44.5192C28.6272 44.4592 28.5935 44.3778 28.5935 44.2929L28.4991 34.2401C28.5068 34.104 28.4867 33.9678 28.4399 33.8398C28.3931 33.7118 28.3207 33.5946 28.2271 33.4956C28.1335 33.3965 28.0206 33.3176 27.8955 33.2637C27.7703 33.2097 27.6354 33.1819 27.4991 33.1819C27.3628 33.1819 27.228 33.2097 27.1028 33.2637C26.9776 33.3176 26.8648 33.3965 26.7712 33.4956C26.6775 33.5946 26.6051 33.7118 26.5584 33.8398C26.5116 33.9678 26.4914 34.104 26.4991 34.2401C26.4991 34.325 26.4654 34.4064 26.4054 34.4664C26.3454 34.5264 26.264 34.5601 26.1791 34.5601C26.0943 34.5601 26.0129 34.5264 25.9529 34.4664C25.8928 34.4064 25.8591 34.325 25.8591 34.2401C25.8591 33.8051 26.0319 33.388 26.3395 33.0804C26.647 32.7729 27.0642 32.6001 27.4991 32.6001C27.9341 32.6001 28.3512 32.7729 28.6588 33.0804C28.9663 33.388 29.1391 33.8051 29.1391 34.2401L29.2335 44.2897C29.2335 44.3746 29.1998 44.456 29.1398 44.516C29.0798 44.576 28.9984 44.6097 28.9135 44.6097V44.6129Z" fill="#231F20"/>
<path d="M57.0592 64.9088C56.9743 64.9088 56.8929 64.8751 56.8329 64.8151C56.7729 64.7551 56.7392 64.6737 56.7392 64.5888V56.0944C56.7384 56.0811 56.7384 56.0677 56.7392 56.0544C56.7599 55.8956 56.7892 55.738 56.8272 55.5824C57.1152 54.4464 58.0848 53.552 59.3583 53.2512C62.9455 52.4048 63.8687 50.0512 63.9071 49.9568C63.9065 49.9515 63.9065 49.9461 63.9071 49.9408L67.5759 41.488C67.6861 41.2314 67.6974 40.943 67.6074 40.6786C67.5175 40.4141 67.3328 40.1924 67.089 40.0562C66.8451 39.9199 66.5595 39.8789 66.2872 39.9409C66.0148 40.0029 65.7751 40.1636 65.6143 40.392L61.1535 46.792C61.122 46.8371 61.0794 46.8733 61.0298 46.8972C60.9802 46.921 60.9253 46.9316 60.8703 46.928C60.8175 46.928 55.6272 46.608 53.7312 47.5824L53.688 47.6C53.0951 47.8375 52.6081 48.2813 52.3168 48.8496C52.3004 48.8898 52.276 48.9262 52.2452 48.9566C52.2143 48.9871 52.1776 49.0109 52.1372 49.0268C52.0968 49.0426 52.0537 49.05 52.0103 49.0487C51.967 49.0473 51.9244 49.0371 51.8851 49.0188C51.8458 49.0004 51.8106 48.9743 51.7817 48.942C51.7529 48.9096 51.7309 48.8717 51.7171 48.8306C51.7033 48.7895 51.698 48.746 51.7015 48.7028C51.705 48.6596 51.7173 48.6175 51.7376 48.5792C52.0951 47.8589 52.7075 47.2972 53.456 47.0032C55.3312 46.0528 59.7648 46.2288 60.7311 46.28L65.0895 40.04C65.3412 39.6816 65.7167 39.4292 66.1437 39.3316C66.5706 39.234 67.0185 39.2982 67.4009 39.5118C67.7832 39.7253 68.0728 40.0731 68.2136 40.4878C68.3544 40.9024 68.3364 41.3546 68.1631 41.7568L64.4975 50.2032C64.4175 50.4096 63.3599 52.976 59.4991 53.8832C58.4576 54.128 57.6704 54.8432 57.4416 55.7472C57.4105 55.8717 57.3865 55.9977 57.3696 56.1248V64.5968C57.3675 64.6787 57.3342 64.7566 57.2765 64.8147C57.2188 64.8727 57.141 64.9064 57.0592 64.9088Z" fill="#231F20"/>
<path d="M60.2863 43.1998C60.2014 43.1998 60.12 43.1661 60.06 43.1061C60 43.0461 59.9663 42.9647 59.9663 42.8798L60.0271 29.5758C60.0292 29.1082 60.2142 28.6599 60.5425 28.3269C60.8708 27.9939 61.3163 27.8026 61.7839 27.7938C62.2514 27.785 62.7039 27.9595 63.0444 28.2799C63.385 28.6004 63.5867 29.0414 63.6063 29.5086L64.1599 42.1966C64.1634 42.2812 64.1332 42.3638 64.0759 42.4262C64.0186 42.4885 63.9389 42.5257 63.8543 42.5294C63.8123 42.5314 63.7703 42.525 63.7307 42.5107C63.6912 42.4963 63.6548 42.4744 63.6237 42.446C63.5927 42.4176 63.5675 42.3834 63.5497 42.3452C63.5319 42.3071 63.5218 42.2659 63.5199 42.2238L62.9711 29.5438C62.9559 29.2455 62.8252 28.9648 62.6068 28.7611C62.3883 28.5574 62.0992 28.4467 61.8006 28.4523C61.502 28.4579 61.2172 28.5794 61.0066 28.7912C60.7959 29.003 60.6759 29.2883 60.6719 29.587L60.6111 42.8878C60.609 42.9721 60.5737 43.0522 60.5129 43.1106C60.4521 43.1691 60.3706 43.2011 60.2863 43.1998Z" fill="#231F20"/>
<path d="M57.12 42.5839C57.0352 42.5839 56.9538 42.5502 56.8938 42.4901C56.8338 42.4301 56.8 42.3487 56.8 42.2639L56.8448 28.7279C56.8537 28.2649 57.0416 27.8233 57.3691 27.4959C57.6966 27.1685 58.1383 26.9807 58.6013 26.972C59.0643 26.9633 59.5127 27.1344 59.8523 27.4492C60.1919 27.7641 60.3962 28.1983 60.4225 28.6607L60.6241 31.6431C60.6298 31.728 60.6016 31.8116 60.5456 31.8757C60.4896 31.9397 60.4105 31.979 60.3257 31.9847C60.2408 31.9904 60.1571 31.9622 60.0931 31.9062C60.029 31.8503 59.9898 31.7711 59.9841 31.6863L59.7841 28.6991C59.7693 28.4011 59.6395 28.1205 59.4218 27.9165C59.2041 27.7125 58.9157 27.601 58.6174 27.6055C58.3191 27.6101 58.0343 27.7304 57.823 27.941C57.6117 28.1516 57.4904 28.436 57.4849 28.7343L57.4401 42.2639C57.4401 42.3487 57.4063 42.4301 57.3463 42.4901C57.2863 42.5502 57.2049 42.5839 57.12 42.5839Z" fill="#231F20"/>
<path d="M46.0383 64.72C45.9535 64.72 45.8721 64.6862 45.812 64.6262C45.752 64.5662 45.7183 64.4848 45.7183 64.4V55.9583C44.7151 54.1055 44.6063 51.7791 45.4335 49.7183C46.2223 47.7455 47.7055 46.6447 49.2735 45.4767C49.5599 45.2655 49.8479 45.0495 50.1343 44.8287C50.4207 44.6079 50.6527 44.4335 50.8815 44.2607C51.9791 43.4367 52.6495 42.9327 53.4991 41.5839C53.4991 40.4975 53.5535 29.9871 53.5535 29.9871C53.5535 28.8239 54.3215 27.9775 55.3791 27.9775C55.9117 27.978 56.4225 28.1893 56.7997 28.5653C57.1769 28.9413 57.3898 29.4514 57.3919 29.9839L57.4687 35.5071C57.4687 35.592 57.435 35.6734 57.375 35.7334C57.315 35.7934 57.2336 35.8271 57.1487 35.8271C57.0639 35.8271 56.9825 35.7934 56.9225 35.7334C56.8624 35.6734 56.8287 35.592 56.8287 35.5071L56.7519 29.9807C56.7524 29.6165 56.6082 29.267 56.3511 29.009C56.094 28.751 55.745 28.6056 55.3807 28.6047C54.5615 28.6047 54.1951 29.2927 54.1951 29.9759L54.1679 35.8223C54.1407 41.7423 54.1407 41.7423 54.1071 41.8079L54.0927 41.8335C53.1567 43.3407 52.4047 43.9055 51.2671 44.7599C51.0415 44.9295 50.7967 45.1135 50.5279 45.3215C50.2591 45.5295 49.9423 45.7663 49.6559 45.9775C48.1615 47.0895 46.7487 48.1392 46.0271 49.9424C45.2607 51.8624 45.3695 54.016 46.3167 55.712C46.3444 55.7607 46.3587 55.8159 46.3583 55.872V64.4C46.3583 64.4848 46.3246 64.5662 46.2646 64.6262C46.2046 64.6862 46.1232 64.72 46.0383 64.72Z" fill="#231F20"/>
<path d="M51.0864 44.6129C51.0015 44.6129 50.9201 44.5792 50.8601 44.5192C50.8001 44.4592 50.7664 44.3778 50.7664 44.2929L50.8608 34.2401C50.8608 33.8051 51.0335 33.388 51.3411 33.0804C51.6487 32.7729 52.0658 32.6001 52.5008 32.6001C52.9357 32.6001 53.3528 32.7729 53.6604 33.0804C53.968 33.388 54.1408 33.8051 54.1408 34.2401C54.1408 34.325 54.107 34.4064 54.047 34.4664C53.987 34.5264 53.9056 34.5601 53.8208 34.5601C53.7359 34.5601 53.6545 34.5264 53.5945 34.4664C53.5345 34.4064 53.5008 34.325 53.5008 34.2401C53.5085 34.104 53.4883 33.9678 53.4415 33.8398C53.3947 33.7118 53.3223 33.5946 53.2287 33.4956C53.1351 33.3965 53.0223 33.3176 52.8971 33.2637C52.7719 33.2097 52.6371 33.1819 52.5008 33.1819C52.3645 33.1819 52.2296 33.2097 52.1044 33.2637C51.9792 33.3176 51.8664 33.3965 51.7728 33.4956C51.6792 33.5946 51.6068 33.7118 51.56 33.8398C51.5132 33.9678 51.4931 34.104 51.5008 34.2401L51.4064 44.2961C51.4055 44.3804 51.3714 44.461 51.3115 44.5203C51.2516 44.5796 51.1707 44.6129 51.0864 44.6129Z" fill="#231F20"/>
<path d="M39.9505 35.0912C38.2801 35.0912 36.6465 34.3696 35.3473 33.0592C33.8945 31.5936 33.0369 29.5616 33.0545 27.6192C33.0689 25.8336 33.6673 22.896 36.4145 19.04C37.4003 17.6552 38.5076 16.361 39.7233 15.1728C39.7826 15.117 39.861 15.0859 39.9425 15.0859C40.0239 15.0859 40.1023 15.117 40.1617 15.1728C41.3801 16.3606 42.4901 17.6548 43.4785 19.04C46.2337 22.896 46.8305 25.8336 46.8465 27.6192C46.8641 29.5568 46.0065 31.5888 44.5537 33.0592C43.2545 34.3696 41.6193 35.0912 39.9505 35.0912ZM39.9505 15.8592C38.8305 16.9792 33.7409 22.3648 33.6945 27.6288C33.6785 29.4 34.4657 31.2624 35.8017 32.6096C36.9793 33.7968 38.4529 34.4512 39.9505 34.4512C41.4481 34.4512 42.9217 33.7968 44.0993 32.6096C45.4353 31.2624 46.2225 29.4 46.2065 27.6288C46.1601 22.3648 41.0769 16.9872 39.9505 15.8592Z" fill="#231F20"/>
<path d="M39.9504 44.619C39.8655 44.619 39.7841 44.5853 39.7241 44.5253C39.6641 44.4653 39.6304 44.3839 39.6304 44.299V19.5646C39.6304 19.4798 39.6641 19.3984 39.7241 19.3384C39.7841 19.2783 39.8655 19.2446 39.9504 19.2446C40.0352 19.2446 40.1166 19.2783 40.1766 19.3384C40.2367 19.3984 40.2704 19.4798 40.2704 19.5646V44.299C40.2704 44.3839 40.2367 44.4653 40.1766 44.5253C40.1166 44.5853 40.0352 44.619 39.9504 44.619Z" fill="#231F20"/>
<path d="M39.9504 24.712C39.9037 24.7118 39.8575 24.7014 39.8152 24.6815C39.773 24.6616 39.7355 24.6327 39.7056 24.5968L36.9056 21.256C36.8764 21.2241 36.8539 21.1867 36.8395 21.1459C36.8251 21.1052 36.8192 21.0619 36.822 21.0188C36.8247 20.9757 36.8362 20.9336 36.8558 20.895C36.8753 20.8564 36.9024 20.8222 36.9355 20.7944C36.9686 20.7666 37.007 20.7458 37.0483 20.7333C37.0897 20.7207 37.1331 20.7167 37.1761 20.7214C37.2191 20.7261 37.2606 20.7394 37.2983 20.7606C37.3359 20.7818 37.3689 20.8105 37.3952 20.8448L40.1952 24.1856C40.2346 24.2322 40.2598 24.2891 40.2679 24.3496C40.2759 24.41 40.2666 24.4716 40.2408 24.5269C40.2151 24.5822 40.1741 24.629 40.1226 24.6618C40.0712 24.6946 40.0114 24.712 39.9504 24.712Z" fill="#231F20"/>
<path d="M39.9504 28.8191C39.9037 28.819 39.8575 28.8086 39.8152 28.7887C39.773 28.7688 39.7355 28.7399 39.7056 28.7039L36.9056 25.3631C36.8764 25.3313 36.8539 25.2939 36.8395 25.2531C36.8251 25.2124 36.8192 25.1691 36.822 25.126C36.8247 25.0829 36.8362 25.0408 36.8558 25.0022C36.8753 24.9636 36.9024 24.9294 36.9355 24.9016C36.9686 24.8738 37.007 24.853 37.0483 24.8405C37.0897 24.8279 37.1331 24.8239 37.1761 24.8286C37.2191 24.8333 37.2606 24.8466 37.2983 24.8678C37.3359 24.889 37.3689 24.9176 37.3952 24.9519L40.1952 28.2927C40.2346 28.3394 40.2598 28.3963 40.2679 28.4567C40.2759 28.5172 40.2666 28.5788 40.2408 28.6341C40.2151 28.6894 40.1741 28.7362 40.1226 28.769C40.0712 28.8018 40.0114 28.8192 39.9504 28.8191Z" fill="#231F20"/>
<path d="M39.8863 32.9425C39.8397 32.9425 39.7937 32.9323 39.7514 32.9127C39.7091 32.8931 39.6716 32.8645 39.6415 32.8289L36.8415 29.4881C36.8145 29.4558 36.7942 29.4185 36.7816 29.3784C36.769 29.3383 36.7644 29.2961 36.7681 29.2542C36.7718 29.2123 36.7837 29.1715 36.8032 29.1342C36.8227 29.0969 36.8493 29.0639 36.8815 29.0369C36.9467 28.9823 37.0308 28.9559 37.1154 28.9634C37.1573 28.9671 37.1981 28.9791 37.2354 28.9985C37.2727 29.018 37.3057 29.0446 37.3327 29.0769L40.1311 32.4177C40.17 32.4643 40.1948 32.5211 40.2026 32.5813C40.2104 32.6415 40.2009 32.7027 40.1753 32.7577C40.1496 32.8128 40.1088 32.8594 40.0576 32.8921C40.0065 32.9248 39.9471 32.9423 39.8863 32.9425Z" fill="#231F20"/>
<path d="M40.1025 32.9792C40.0298 32.9791 39.9592 32.9543 39.9025 32.9088C39.8361 32.8559 39.7934 32.7789 39.7838 32.6946C39.7742 32.6102 39.7985 32.5256 39.8513 32.4592L42.5601 29.0463C42.586 29.0128 42.6184 28.9848 42.6552 28.9638C42.6921 28.9429 42.7328 28.9295 42.7748 28.9244C42.8169 28.9193 42.8596 28.9227 42.9004 28.9342C42.9412 28.9458 42.9793 28.9653 43.0124 28.9917C43.0456 29.0181 43.0732 29.0508 43.0936 29.088C43.1141 29.1251 43.1269 29.1659 43.1314 29.2081C43.1359 29.2502 43.132 29.2929 43.1199 29.3335C43.1078 29.3741 43.0877 29.4119 43.0609 29.4447L40.3521 32.8576C40.3223 32.8953 40.2844 32.9258 40.2412 32.9468C40.198 32.9679 40.1506 32.9789 40.1025 32.9792Z" fill="#231F20"/>
<path d="M40.0608 28.8545C40.0007 28.8545 39.9418 28.8376 39.8909 28.8057C39.8399 28.7738 39.799 28.7281 39.7727 28.674C39.7465 28.6199 39.7361 28.5595 39.7426 28.4998C39.7491 28.44 39.7724 28.3833 39.8096 28.3361L42.5216 24.9233C42.5476 24.8898 42.5799 24.8617 42.6168 24.8408C42.6536 24.8199 42.6943 24.8065 42.7364 24.8014C42.7785 24.7963 42.8211 24.7996 42.8619 24.8112C42.9027 24.8227 42.9408 24.8423 42.974 24.8686C43.0071 24.895 43.0347 24.9278 43.0552 24.9649C43.0756 25.0021 43.0884 25.0429 43.0929 25.085C43.0974 25.1272 43.0935 25.1698 43.0814 25.2104C43.0693 25.2511 43.0493 25.2889 43.0224 25.3217L40.3104 28.7345C40.2805 28.7719 40.2425 28.8021 40.1993 28.8229C40.1561 28.8437 40.1088 28.8545 40.0608 28.8545Z" fill="#231F20"/>
<path d="M39.9505 24.7136C39.8904 24.7137 39.8315 24.6967 39.7805 24.6648C39.7296 24.6329 39.6886 24.5873 39.6624 24.5332C39.6362 24.4791 39.6257 24.4187 39.6323 24.3589C39.6388 24.2991 39.662 24.2424 39.6993 24.1952L42.4113 20.7824C42.4373 20.7489 42.4696 20.7209 42.5065 20.6999C42.5433 20.679 42.584 20.6656 42.6261 20.6605C42.6681 20.6554 42.7108 20.6588 42.7516 20.6703C42.7924 20.6819 42.8305 20.7014 42.8637 20.7278C42.8968 20.7542 42.9244 20.7869 42.9449 20.824C42.9653 20.8612 42.9781 20.902 42.9826 20.9442C42.9871 20.9863 42.9832 21.029 42.9711 21.0696C42.959 21.1102 42.939 21.148 42.9121 21.1808L40.2001 24.5936C40.1701 24.6311 40.1322 24.6613 40.089 24.682C40.0458 24.7028 39.9984 24.7136 39.9505 24.7136Z" fill="#231F20"/>
</svg>
