<svg width="80" height="80" viewBox="0 0 80 80" fill="none" xmlns="http://www.w3.org/2000/svg">
<path d="M39.9999 62.3199C27.6927 62.3199 17.6799 52.3071 17.6799 39.9999C17.6799 27.6927 27.6927 17.6799 39.9999 17.6799C52.3071 17.6799 62.3199 27.6927 62.3199 39.9999C62.3199 52.3071 52.3071 62.3199 39.9999 62.3199ZM39.9999 18.3199C28.0463 18.3199 18.3199 28.0463 18.3199 39.9999C18.3199 51.9535 28.0463 61.6799 39.9999 61.6799C51.9535 61.6799 61.6799 51.9535 61.6799 39.9999C61.6799 28.0463 51.9535 18.3199 39.9999 18.3199Z" fill="#231F20"/>
<path d="M41.4752 53.4401C41.4077 53.4401 41.342 53.4187 41.2874 53.379C41.2328 53.3394 41.1921 53.2835 41.1712 53.2193C41.1168 53.0593 35.7504 37.0017 29.6144 32.5601C29.5456 32.5103 29.4995 32.4351 29.4862 32.3513C29.4728 32.2674 29.4933 32.1817 29.5432 32.1129C29.593 32.0442 29.6682 31.998 29.752 31.9847C29.8359 31.9713 29.9216 31.9919 29.9904 32.0417C32.6448 33.9617 35.4304 38.0817 38.288 44.2849C39.7536 47.4689 40.8576 50.4129 41.4016 51.9361C41.8209 50.1467 42.3553 48.3862 43.0016 46.6657C44.2096 43.4737 46.344 39.1633 49.6592 36.7649C49.7281 36.7193 49.8119 36.7022 49.8932 36.717C49.9744 36.7318 50.0468 36.7775 50.0952 36.8444C50.1436 36.9114 50.1641 36.9945 50.1527 37.0763C50.1412 37.1581 50.0985 37.2323 50.0336 37.2833C43.9216 41.7073 41.808 53.0625 41.7872 53.1761C41.7746 53.2459 41.7392 53.3096 41.6865 53.3571C41.6338 53.4046 41.5667 53.4332 41.496 53.4385L41.4752 53.4401Z" fill="#231F20"/>
<path d="M46.5679 44.6097C45.989 44.6069 45.4106 44.5738 44.8351 44.5105C44.779 44.5045 44.7254 44.4837 44.6799 44.4502C44.6344 44.4168 44.5985 44.3719 44.576 44.3201L44.4416 44.0273C44.1104 43.3121 43.8015 42.6353 43.6335 41.8193C43.1391 39.3729 44.1727 36.6369 46.2047 35.0081C47.9759 33.5905 50.4511 33.0321 52.9935 33.4785C53.0579 33.4898 53.1172 33.5206 53.1635 33.5667C53.2099 33.6127 53.241 33.6718 53.2527 33.7361C53.5583 35.4353 54.0607 39.6673 52.1327 42.2497C50.7199 44.1601 48.5199 44.6097 46.5679 44.6097ZM45.0816 43.8929C47.3087 44.1073 50.0111 44.0369 51.6223 41.8721C53.3215 39.5937 52.9519 35.8161 52.6623 34.0769C50.3791 33.7329 48.1823 34.2497 46.6047 35.5169C44.7839 36.9745 43.8208 39.5169 44.2608 41.7009C44.4112 42.4433 44.7088 43.0865 45.0224 43.7665L45.0816 43.8929Z" fill="#231F20"/>
<path d="M50.76 39.4479C50.7178 39.4478 50.6759 39.4397 50.6368 39.4239C49.8096 39.0783 48.8288 39.1455 47.9648 39.2047C47.9227 39.2077 47.8805 39.2023 47.8406 39.1889C47.8006 39.1756 47.7637 39.1545 47.7319 39.1268C47.6677 39.071 47.6283 38.992 47.6224 38.9071C47.6164 38.8222 47.6444 38.7385 47.7003 38.6743C47.7561 38.6101 47.8351 38.5707 47.92 38.5647C48.856 38.4991 49.9168 38.4271 50.8832 38.8319C50.9509 38.8607 51.0065 38.912 51.0409 38.9771C51.0752 39.0422 51.086 39.1171 51.0715 39.1892C51.0571 39.2614 51.0182 39.3263 50.9614 39.3732C50.9047 39.42 50.8335 39.4458 50.76 39.4463V39.4479Z" fill="#231F20"/>
<path d="M49.3504 42.0975C49.3115 42.097 49.273 42.0894 49.2368 42.0751C48.2802 41.7149 47.2409 41.6339 46.24 41.8415C46.1568 41.8589 46.0701 41.8425 45.999 41.796C45.9279 41.7495 45.8782 41.6767 45.8608 41.5935C45.8434 41.5103 45.8597 41.4236 45.9063 41.3525C45.9528 41.2814 46.0256 41.2317 46.1088 41.2143C47.2312 40.9824 48.3964 41.074 49.4688 41.4783C49.5389 41.5049 49.5975 41.5553 49.6343 41.6207C49.671 41.6861 49.6836 41.7623 49.6699 41.836C49.6562 41.9098 49.617 41.9763 49.5592 42.0241C49.5014 42.0719 49.4286 42.0979 49.3536 42.0975H49.3504Z" fill="#231F20"/>
<path d="M46.1872 41.7278C46.1187 41.7277 46.0519 41.7055 45.9969 41.6646C45.9419 41.6237 45.9015 41.5663 45.8816 41.5006C45.7294 41.0106 45.4388 40.575 45.0448 40.2462C45.0124 40.2193 44.9857 40.1863 44.9661 40.1491C44.9465 40.1119 44.9344 40.0712 44.9306 40.0293C44.9267 39.9874 44.9311 39.9451 44.9436 39.9049C44.956 39.8647 44.9763 39.8274 45.0032 39.795C45.0301 39.7627 45.0631 39.7359 45.1003 39.7163C45.1376 39.6967 45.1783 39.6847 45.2202 39.6808C45.2621 39.6769 45.3043 39.6814 45.3445 39.6938C45.3847 39.7063 45.422 39.7265 45.4544 39.7534C45.9436 40.1625 46.3042 40.7042 46.4928 41.3134C46.5052 41.3537 46.5094 41.396 46.5054 41.4378C46.5014 41.4797 46.4892 41.5204 46.4694 41.5576C46.4496 41.5947 46.4227 41.6276 46.3902 41.6544C46.3577 41.6811 46.3203 41.7012 46.28 41.7134C46.25 41.7228 46.2187 41.7276 46.1872 41.7278Z" fill="#231F20"/>
<path d="M47.8832 39.1999C47.8013 39.2 47.7224 39.1687 47.6629 39.1125C47.6034 39.0562 47.5677 38.9793 47.5632 38.8975C47.5414 38.5553 47.4501 38.2211 47.2946 37.9154C47.1392 37.6097 46.9229 37.339 46.6592 37.1199C46.5934 37.066 46.5517 36.9882 46.5433 36.9036C46.5349 36.8189 46.5605 36.7345 46.6144 36.6687C46.6683 36.6029 46.7461 36.5612 46.8307 36.5528C46.9153 36.5444 46.9998 36.57 47.0656 36.6239C47.3972 36.9006 47.6691 37.2419 47.8646 37.6269C48.0602 38.012 48.1754 38.4329 48.2032 38.8639C48.208 38.9485 48.179 39.0316 48.1226 39.0949C48.0662 39.1582 47.987 39.1965 47.9024 39.2015L47.8832 39.1999Z" fill="#231F20"/>
<path d="M33.2159 40.5807C30.3183 40.5807 28.9903 39.4735 28.2127 38.5535C26.1327 36.0927 26.3807 31.8335 26.5807 30.1247C26.5882 30.0592 26.6157 29.9977 26.6596 29.9484C26.7034 29.8991 26.7613 29.8646 26.8255 29.8495C29.3359 29.2511 31.8399 29.6575 33.6943 30.9695C35.8207 32.4703 37.0191 35.1391 36.6735 37.6111C36.5583 38.4367 36.2879 39.1295 36.0015 39.8639L35.8847 40.1647C35.8648 40.2169 35.8316 40.263 35.7884 40.2984C35.7451 40.3337 35.6934 40.3572 35.6383 40.3663C34.838 40.5035 34.0279 40.5752 33.2159 40.5807ZM27.1999 30.4239C27.0159 32.1759 26.8799 35.9695 28.7103 38.1407C30.4511 40.2031 33.1519 40.1103 35.3615 39.7599L35.4127 39.6287C35.6847 38.9295 35.9423 38.2703 36.0527 37.5199C36.3599 35.3135 35.2431 32.8351 33.3327 31.4895C31.6799 30.3247 29.4511 29.9391 27.1999 30.4239Z" fill="#231F20"/>
<path d="M29.3968 35.6705C29.3242 35.6708 29.2537 35.6465 29.1968 35.6014C29.14 35.5564 29.1001 35.4934 29.0837 35.4227C29.0673 35.352 29.0755 35.2779 29.1068 35.2125C29.1381 35.147 29.1907 35.0941 29.256 35.0625C30.1952 34.6001 31.2592 34.6097 32.1968 34.6161C32.2816 34.6161 32.363 34.6498 32.423 34.7099C32.483 34.7699 32.5168 34.8513 32.5168 34.9361C32.5168 35.021 32.483 35.1024 32.423 35.1624C32.363 35.2224 32.2816 35.2561 32.1968 35.2561C31.3312 35.2561 30.3472 35.2417 29.544 35.6369C29.4983 35.6597 29.4478 35.6712 29.3968 35.6705Z" fill="#231F20"/>
<path d="M30.9649 38.2273C30.8918 38.2274 30.8209 38.2024 30.764 38.1565C30.7071 38.1107 30.6676 38.0467 30.6521 37.9753C30.6366 37.9039 30.646 37.8293 30.6787 37.7639C30.7115 37.6986 30.7656 37.6464 30.8321 37.6161C31.8785 37.1474 33.0366 36.9859 34.1713 37.1505C34.2133 37.1566 34.2537 37.1709 34.2902 37.1926C34.3267 37.2144 34.3586 37.243 34.384 37.2771C34.4094 37.3111 34.4278 37.3498 34.4383 37.3909C34.4487 37.4321 34.451 37.4749 34.4449 37.5169C34.4388 37.559 34.4245 37.5994 34.4028 37.6359C34.3811 37.6723 34.3524 37.7042 34.3184 37.7296C34.2843 37.755 34.2456 37.7735 34.2045 37.7839C34.1633 37.7944 34.1205 37.7966 34.0785 37.7905C33.065 37.6432 32.0306 37.7875 31.0961 38.2065C31.0543 38.2226 31.0096 38.2297 30.9649 38.2273Z" fill="#231F20"/>
<path d="M34.1009 37.6671C34.0759 37.6695 34.0507 37.6695 34.0257 37.6671C33.9847 37.6573 33.946 37.6395 33.9118 37.6148C33.8777 37.59 33.8488 37.5587 33.8268 37.5227C33.8048 37.4868 33.7901 37.4468 33.7836 37.4051C33.7771 37.3634 33.7789 37.3209 33.7889 37.2799C33.9396 36.6603 34.267 36.0978 34.7313 35.6607C34.7937 35.6064 34.8747 35.5783 34.9573 35.5824C35.0399 35.5865 35.1177 35.6224 35.1744 35.6827C35.2311 35.7429 35.2623 35.8227 35.2614 35.9054C35.2605 35.9881 35.2277 36.0673 35.1697 36.1263C34.7961 36.4785 34.5327 36.9314 34.4113 37.4303C34.393 37.4985 34.3526 37.5587 34.2964 37.6015C34.2403 37.6443 34.1715 37.6674 34.1009 37.6671Z" fill="#231F20"/>
<path d="M32.2529 35.2512C32.168 35.2512 32.0866 35.2175 32.0266 35.1575C31.9666 35.0975 31.9329 35.0161 31.9329 34.9312C31.9361 34.5015 32.0263 34.077 32.1982 33.6832C32.3701 33.2894 32.62 32.9345 32.9329 32.64C32.9633 32.6098 32.9996 32.5861 33.0394 32.5702C33.0792 32.5543 33.1219 32.5465 33.1648 32.5474C33.2076 32.5483 33.2499 32.5578 33.289 32.5754C33.3282 32.593 33.3634 32.6182 33.3926 32.6497C33.4217 32.6811 33.4443 32.7181 33.4589 32.7584C33.4735 32.7987 33.4799 32.8416 33.4776 32.8844C33.4753 32.9272 33.4644 32.9692 33.4456 33.0077C33.4268 33.0463 33.4004 33.0806 33.3681 33.1088C33.1175 33.3437 32.9174 33.6271 32.7799 33.9417C32.6423 34.2564 32.5703 34.5958 32.5681 34.9392C32.5681 35.0241 32.5343 35.1055 32.4743 35.1655C32.4143 35.2255 32.3329 35.2592 32.2481 35.2592L32.2529 35.2512Z" fill="#231F20"/>
</svg>
